<svg xmlns="http://www.w3.org/2000/svg" xmlns:xlink="http://www.w3.org/1999/xlink" width="3715.363" height="3827.747" viewBox="0 0 983.023 1012.758" xmlns:v="https://vecta.io/nano"><style><![CDATA[.B{fill:#546468}.C{fill:#fff}.D{fill:#2a3038}.E{fill:#b26f53}.F{fill:#ececec}.G{fill:#cf2600}.H{fill:#b16e3c}.I{fill:#8e5427}.J{fill:#e8906c}.K{fill:#fd7900}.L{fill:#004d7a}.M{fill:#004066}.N{fill:#ba2200}.O{fill:#bb7f55}.P{fill:#e5e5e5}.Q{fill:#dd885e}.R{fill:#98a1a4}]]></style><defs><linearGradient id="A" x1="876.587" y1="574.141" x2="859.206" y2="567.754" gradientUnits="userSpaceOnUse"><stop offset="0" stop-color="orange"/><stop offset="1" stop-color="orange" stop-opacity="0"/></linearGradient><linearGradient id="B" x1="394.95" y1="800.137" x2="401.346" y2="780.067" gradientUnits="userSpaceOnUse"><stop offset="0" stop-color="orange"/><stop offset="1" stop-color="orange" stop-opacity="0"/></linearGradient><path id="C" d="M288.031 1012.762h3.217v-3.743h-3.217v3.743"/><path id="D" d="M321.33 871.035h0c-.06.456.274.873.746.93l12.532 1.464.217-1.651-12.532-1.464c-.472-.057-.903.265-.963.721"/><path id="E" d="M347.511 871.205a.86.86 0 0 0-.922-.616l-12.804 1.19.178 1.654 12.804-1.189c.525-.052.878-.546.744-1.039"/><path id="F" d="M341.632 830.497c-.445-1.932-2.312-2.785-3.699-1.688-.894.707-1.307 2.035-1.02 3.281l41.108 178.501c.445 1.932 2.312 2.783 3.698 1.687.894-.707 1.307-2.035 1.02-3.281l-41.108-178.499"/><path id="G" d="M322.95 849.473h-25.024c-1.367 0-2.475.84-2.475 1.875v.28c0 1.035 1.108 1.875 2.475 1.875h25.024c1.367 0 2.475-.84 2.475-1.875v-.28c0-1.035-1.108-1.875-2.475-1.875"/><path id="H" d="M289.835 993.148h-25.024c-1.367 0-2.475.839-2.475 1.875v.278c0 1.036 1.108 1.875 2.475 1.875h25.024c1.367 0 2.474-.839 2.474-1.875v-.278c0-1.036-1.108-1.875-2.474-1.875"/><path id="I" d="M354.276 875.481l-5.49 23.027-.659 2.764.693 1.623 10.38 25.076 8.878-3.46-4.012-23.328 8.002-20.504-17.791-5.197"/></defs><g fill="#999"><path d="M267.84 901.872l-.09-87.064 34.236-16.252c23.611-11.208 34.19-16.53 34.538-17.373.657-1.591 63.048-226.832 63.419-228.951.157-.893.442-2.366.634-3.274.346-1.636-.259-1.868-66.456-25.488l-67.616-24.126-.257-87.96.282-87.716c1.211.715 176.468 68.623 177.042 68.603.342-.012.621-.171.621-.353s12.376-44.98 27.473-99.442l26.877-99.209c-.268-.27-10.618-4.477-23.025-9.36l-22.63-8.906-.266-52.112-.266-52.139 6.781 2.863 65.581 27.207c.093-.115 6.424-22.833 14.062-50.457L552.644.213l47.642-.164c39.207-.135 47.184-.02 46.926.682-.17.464-8.586 31.144-18.714 68.227l-17.561 68.124c.49.308 46.195 19.551 101.054 42.549l98.33 41.222.011 38.693.011 38.678-135.283 63.39-139.766 65.516c-.867.425 42.5 17.524 169.05 66.666l164.992 64.07v63.704 63.665l-1.603.963c-2.14 1.286-598.885 302.587-599.402 302.632-.222.019-.444-39.103-.493-86.958zm280.372-220.09l97.419-46.555c.023-.49-156.4-56.412-156.737-56.03-.244.276-39.513 143.712-40.596 148.286-.275 1.162-.205 1.764.185 1.587.346-.156 45.436-21.537 99.729-47.288zm65.432-391.03l56.661-25.179c2.927-1.29 5.215-2.452 5.086-2.583-.685-.696-89.775-35.504-90.074-35.189-.381.402-23.915 86.003-23.642 85.995.091-.003 23.534-10.399 51.968-23.044z"/><path d="M266.887 814.387l49.515 20.418.51 172.025-47.983-18.887zM552.661.235l48.728 19.852 94.208.18L646.689.596z"/></g><path d="M316.325 921.778l-.09-87.064 34.236-16.252c23.611-11.208 34.19-16.53 34.538-17.373.657-1.591 63.048-226.832 63.419-228.951a116.41 116.41 0 0 1 .634-3.274c.346-1.636-.259-1.869-66.456-25.488l-67.616-24.126-.257-87.96.282-87.716c1.211.715 176.468 68.623 177.042 68.603.342-.012.621-.171.621-.353s12.376-44.98 27.473-99.442l26.877-99.209c-.268-.27-10.618-4.477-23.025-9.36l-22.63-8.906-.266-52.112-.266-52.139 6.781 2.863 65.581 27.207c.093-.115 6.424-22.833 14.062-50.457l13.865-50.147 47.642-.164c39.207-.135 47.184-.02 46.926.682-.17.464-8.586 31.144-18.714 68.227l-17.561 68.124c.49.308 46.195 19.551 101.054 42.549l98.33 41.222.011 38.693.011 38.678-135.283 63.39-139.766 65.516c-.867.425 42.5 17.524 169.05 66.666l164.992 64.07v63.704 63.665l-1.603.963c-2.14 1.286-598.885 302.587-599.402 302.632-.222.019-.444-39.103-.493-86.958zm280.372-220.09l97.419-46.555c.023-.49-156.4-56.412-156.737-56.03-.244.276-39.513 143.712-40.596 148.286-.275 1.162-.205 1.764.185 1.587.346-.156 45.436-21.537 99.729-47.288zm65.432-391.03l56.661-25.179c2.927-1.29 5.215-2.452 5.086-2.583-.685-.696-89.775-35.504-90.074-35.189-.381.402-23.915 86.003-23.642 85.995.091-.003 23.534-10.399 51.968-23.044z" class="C"/><g fill="#999"><path d="M131.972 784.461L1.629 736.643l20.987-13.282 20.221-12.797 178.156 5.95 126.185 4.214-12.946 11.742c-8.143 7.389-13.731 12.161-14.289 12.2-.502.035-33.817-.153-78.082-.445l-94.043-.192c.218.236 29.879 12.343 63.43 25.9l55.243 22.527c.184.187-6.885 6.68-15.874 14.574l-16.827 14.779z"/><path d="M0 694.245l1.245 42.34 232.245 85.302v-42.651z"/><path d="M264.623 750.594l.934 42.028-31.132 28.953-1.557-42.651zm53.547-48.566l1.868 42.962 26.462-24.283-.311-42.651"/><path d="M139.16 695.802l182.278.778.156 27.396-141.651-3.425-43.429-16.967z"/></g><path d="M130.512 742.217L.168 694.399l20.987-13.282 20.221-12.797 178.156 5.95 126.185 4.214-12.946 11.742c-8.143 7.389-13.731 12.161-14.289 12.2-.502.035-33.817-.153-78.082-.445l-94.043-.192c.218.236 29.879 12.343 63.43 25.9l55.243 22.527c.184.187-6.885 6.68-15.874 14.574L232.33 779.57z" fill="orange"/><path d="M391.531 778.937l18.657 3.933-12.699 47.389-19.341-4.7z" fill="url(#B)"/><path d="M316.176 835.002l93.446-45.182 16.612-65.31 18.374-6.688-11.542 46.181 10.761-6.483 17.131-58.837 18.669-3.926-14.248 56.882 7.933-2.817 2.674-7.688 13.126-4.011 4.908-15.626 11.018-5.008-61.888 228.899-125.088 61.601zm559.897-252.803l-6.078 14.535-40.434-16.385-8.721 19.821-74.79-32.242-17.706 35.677 22.199 9.514-13.478 27.485 26.956 11.364-21.142 46.777 21.142 9.778-22.463 47.041 41.491 17.971 135.045-67.919-.264-128.174-31.184-11.628z" fill="orange"/><path d="M851.818 574.221l7.374-19.197 38.472 14.961-6.717 19.552z" fill="url(#A)"/><path d="M417.073 822.296l-.012.257.012-.257m435.351-254.747c-.129-1.022-.414-1.419 0 0" class="K"/><path d="M964.366 733.172l-7.409.624s-1.242 4.084-.524 6.803c.114.437.515.745.98.745l10.418.016s2.388-.344 2.107-2.513c-.378-2.918-5.573-5.675-5.573-5.675m-36.478.181s-2.167 1.614-6.438 3.405-3.347 4.488-3.347 4.488l18.934.029c.561 0 1.048-.395 1.125-.934.416-2.928-1.259-7.528-1.259-7.528l-9.016.54" class="B"/><path d="M863.365 554.927l-10.251 22.947c-.187.42-.004.906.408 1.082l4.066 1.733c.322.138.7.049.941-.218l10.697-8.827c.249-.276.639-.366.971-.224l2.789 1.188.383-.859-2.79-1.189c-.693-.295-1.509-.106-2.029.471l-10.647 8.77-3.905-1.664 10.208-22.851-.842-.359" fill="#0a7480"/><path d="M872.871 570.876c-.284-.121-.556-.13-.604-.018l-.729 1.633c-.049.112.141.299.426.421l64.483 27.577c.284.122.556.13.605.019l.728-1.634c.05-.111-.141-.3-.425-.42l-64.484-27.578" class="D"/><path d="M860.453 554.529a.54.54 0 0 0-.699.285l-8.736 19.551c-.121.272-.004.582.261.695l5.78 2.464c.264.113.578-.015.699-.285l8.736-19.551a.52.52 0 0 0-.262-.695l-5.779-2.463" fill="#ccc"/><path d="M859.379 555.653l-7.362 16.479 2.192 1.067 4.405 2.122 7.606-17.026-.609-.212-6.233-2.431" fill="#ff8d00"/><path d="M960.047 593.556l-7.981 8.878 14.173 11.88c-.534-.078-2.758.536-3.301.446l-1.125 8.253c4.866.887 14.835 1.339 19.354-.608 2.678-1.097 2.45-4.038-.549-8.588-5.635-8.548-13.076-13.322-20.57-20.262" class="E"/><path d="M974.017 608.458l-.86-.925-.341-.353-.091-.093-1.626-1.597-3.61-3.2-3.953-3.024-2.124-1.441-.977-.621-.549-.339-.009-.005-.003-.002c-.659-.391-1.171-.801-1.546-1.39l-6.262 6.966 14.173 11.88c-.534-.078-2.758.536-3.301.446l-1.125 8.253c4.866.887 14.835 1.339 19.354-.608 1.002-.41 1.598-1.08 1.793-1.995-.817-1.415-1.705-2.786-2.648-4.12-1.932-2.731-4.034-5.358-6.294-7.833" fill="#a5674c"/><path d="M924.631 598.958a50.71 50.71 0 0 1-8.034 6.146c-4.394-4.552-8.539-9.82-12.613-14.703l-4.582 2.974c2.003 4.309 4.099 8.547 6.364 12.718 1.916 3.339 3.62 7.187 7.066 9.273 3.622 1.666 7.719.243 11.404-.458l7.652-1.94-7.182-14.093c-.006.018-.047.055-.075.085" class="E"/><path d="M921.698 611.646c-1.528.725-2.986 1.049-4.653.716-1.684-.337-3.107-1.383-4.174-2.679-4.137-5.027-8.414-10.113-11.637-15.812-.253-.45-.392-.927-.432-1.406l-1.4.909c2.003 4.31 4.099 8.547 6.364 12.718 1.916 3.339 3.62 7.188 7.066 9.273 3.622 1.666 7.719.243 11.404-.458l7.652-1.94-3.524-6.917a52.23 52.23 0 0 1-1.315 1.376c-1.578 1.583-3.324 3.256-5.351 4.22" fill="#a5674c"/><path d="M900.547 596.709l5.957-3.984-2.999-4.271-5.118 3.321 2.16 4.934" class="B"/><path d="M930.955 567.425s-1.368 4.624-1.364 7.628-.332 11.752 2.72 12.346 12.213-.632 13.808-1.953 7.057-11.79 4.104-15.912c-3.64-5.086-13.121-7.529-19.268-2.109" class="E"/><path d="M966.07 598.021c-1.306-2.263-12.027-7.765-19.796-8.357s-26.218 1.971-23.984 11.154c0 0 4.988 26.46 4.669 30.402s-1.793 24.382-.914 27.333 9.155 7.968 19.175 8.37 17.451-5.837 17.637-10.917c.611-16.719-1.282-30.084-.846-35.459s5.366-20.264 4.06-22.526" class="F"/><path d="M963.278 637.028c-1.446-1.632-5.539-15.684-5.263-17.979.586-4.874.617-20.956 2.041-26.059-1.659-.901-5.01-1.797-5.567-1.617-.528.17-7.325 16.387-7.325 16.387l-13.694-16.988c-1.977.358-2.596.394-4.255 1.14.107.149 7.935 23.525 7.188 27.648-.364 2.005-6.303 15.746-10.841 20.447l-.558 5.732-.03-.009-.148 2.329c-.187 2.671-.301 5.15-.313 7.104-.919 28.611 1.285 70.634 1.846 79.463h11.503l3.296-40.392c.56-6.664 3.94-24.998 4.115-24.997 4.276 21.035 9.854 44.289 12.382 65.389h9.393c.457-27.574.387-66.057-3.473-95.286-.079-.883-.175-1.669-.297-2.311" class="L"/><g class="M"><path d="M933.537 730.276l-.04-.719-.007-.118-.226-3.155c-.19-2.123-.519-4.21-1.003-6.289-1.036-4.453-2.035-8.929-1.794-13.526a25.21 25.21 0 0 1 .417-3.433 29.07 29.07 0 0 1 .304-1.462c.019-.124.048-.247.068-.371a14.1 14.1 0 0 0 .172-1.539 13.51 13.51 0 0 0 .022-.885 3.1 3.1 0 0 0-.003-.102l-.047-.543a16.36 16.36 0 0 0-.083-.602c-.139-.891-.346-1.769-.559-2.646-.506-2.093-.899-4.148-1.023-6.299-.144-2.52.306-4.956.519-7.47.984-11.652-3.789-17.439-4.313-19.696-.417-1.8-.283-3.756-.001-5.569.138-.89.319-1.774.512-2.654l.463-2.073.131-.575.068-.3.058-.273.126-.615a22.26 22.26 0 0 0 .19-1.081c.125-.832.485-6.762.481-7.309l-.019-.763a1.25 1.25 0 0 0-.006-.058c-.088-.875-.206-1.741-.41-2.595-.672.956-1.336 1.792-1.972 2.451l-.558 5.732-.03-.009-.148 2.329c-.187 2.671-.301 5.15-.313 7.104-.919 28.611 1.285 70.634 1.846 79.463h7.137l-.013-.188c-.047-.778.098-3.384.055-4.161m24.101-13.473a153.59 153.59 0 0 1-1.499-12.624l-.328-6.835-.528-1.633c-.457-1.18-1.074-2.324-1.302-3.568-3.16-17.243-8.479-22.527-8.704-22.888 4.209 20.712 8.318 44.536 10.829 65.369h5.985c-.597-1.562-1.112-3.154-1.579-4.738-1.266-4.288-2.168-8.678-2.875-13.084"/><path d="M953.588 670.585l.006.229-.001.231c.009.013.019-.224.004-.384l-.009-.076m-.267-1.368l.043.221c.099.42.175.231.043-.039l-.086-.183"/></g><path d="M934.837 586.09l.202 4.401c6.441 3.194 12.772-.651 12.772-.651l-1.401-7.978-11.573 4.227" class="E"/><path d="M931.613 565.412c.147.128-.741 8.357.435 9.167 1.987 1.371 2.873.479 3.373 2.781.203.939 3.339 6.686 3.635 6.826 3.424 1.637 6.487 1.345 7.967.456 2.121-3.315 5.647-11.694 3.2-15.109-3.1-4.33-16.873-7.174-18.609-4.121" class="D"/><path d="M960.631 611.177l4.974 5.438 10.224-10.128c-8.454-8.916-16.101-13.526-16.101-13.526l.903 18.216m-40.669-12.147c-2.356 1.118-4.191 4.42-4.191 4.42s-.638 1.533-.093 3.78c1.09 4.504 5.959 8.765 5.959 8.765l12.484-2.122s-9.506-17.052-14.159-14.843" class="F"/><path d="M934.369 574.119c-1.848-1.144-2.176 2.028-2.176 2.028-.166 4.242 1.162 2.664 2.193 2.554s1.83-3.437-.018-4.583" class="E"/><path d="M894.254 579.876s.224.276.264.284c.622.102 1.125 1.527.232 1.944-.51.238-1.532-.166-1.532-.166l-3.182-1.327c-.097.241-.335 1.407 1.605 3.51a59.15 59.15 0 0 1 1.886 3.714 5.42 5.42 0 0 0 1.688 2.199l4.974 3.842 4.494-1.857s-.954-5.387-1.984-7.213-3.46-3.701-4.918-4.654c-1.691-1.107-3.525-.274-3.525-.274" class="B"/><path d="M929.558 562.191c-1.514.193-3.011.673-2.323 2.888s4.172 3.903 4.172 3.903 6.834-4.206 5.803-5.247-4.893-1.895-7.652-1.544" class="N"/><path d="M947.146 562.594c-9.768-5.878-16.433 1.696-16.64 4.238s2.848 8.001 8.171 12.396c0 0 4.191 2.566 10.583 1.193 0 0 8.793-11.262-2.115-17.827" class="G"/><path d="M946.978 575.52c-3.615.19-4.239 2.932-4.239 2.932 3.087 1.397 6.813.325 6.813.325s.243-.525.312-1.371c.091-1.117-.767-1.997-2.887-1.886" class="D"/><g class="H"><path d="M329.277 832.068h3.217v-3.742h-3.217v3.742"/><path d="M333.746 828.809c-1.387-1.096-3.254-.244-3.699 1.688l-41.108 178.499c-.287 1.246.126 2.574 1.02 3.281 1.387 1.096 3.254.245 3.698-1.687l41.108-178.501c.287-1.246-.126-2.574-1.02-3.281"/><use xlink:href="#C"/></g><path d="M330.562 828.809c-1.387-1.096-3.254-.244-3.698 1.688l-41.108 178.499c-.287 1.246.126 2.574 1.02 3.281 1.387 1.096 3.254.245 3.699-1.687l41.108-178.501c.287-1.246-.126-2.574-1.02-3.281" class="I"/><g class="B"><use xlink:href="#D"/><use xlink:href="#E"/><path d="M331.253 873.429h5.743v-2.305h-5.743v2.305"/></g><g class="O"><use xlink:href="#F"/><use xlink:href="#C" x="89.12"/></g><use xlink:href="#F" x="-3.185" class="I"/><path d="M353.331 953.542c-.438 1.365-.547 2.933-3.631 4.326-2.219 1.003-2.984.48-5.571 2.019-1.99 1.183-2.089 3.172-1.319 3.89.649.604 1.661.984 2.761.965l17.309-.048c1.334-.016 2.548-.971 2.487-2.258-.249-5.24-2.995-9.489-2.995-9.489l-9.042.595" class="D"/><path d="M385.916 819.11c-8.092-.028-16.653-1.391-24.716-.96l.643 12.978c9.259-.619 18.32-.779 27.455-2.403 1.8-.266 3.347-1.361 4.277-2.885 2.994-6.599 2.667-13.609 3.879-20.669l-4.515.211c-2.753 4.633-4.563 8.958-7.024 13.728" class="J"/><path d="M307.438 849.597h19.506V824.91h-19.506v24.687" fill="#ebf0f1"/><path d="M316.877 831.154v12.792h10.067v-12.792h-10.067" class="K"/><path d="M311.531 824.91h-4.093v24.687h11.429l-2.281-6.288c-2.01-6.04-3.952-12.14-5.056-18.399" fill="#dfe4e6"/><path d="M307.438 828.492h19.506v-3.582h-19.506v3.582" fill="#dde3e5"/><path d="M307.438 828.326h19.506v-3.416h-19.506v3.416" class="P"/><path d="M317.191 814.119c-6.005 0-10.89 4.424-10.89 9.861v2.236c0 .197.166.357.37.357s.37-.16.37-.357v-2.236c0-5.043 4.553-9.145 10.149-9.145s10.149 4.102 10.149 9.145v2.236c0 .197.166.357.37.357s.37-.16.37-.357v-2.236c0-5.437-4.885-9.861-10.89-9.861" class="B"/><path d="M306.869 827.554h20.617v-2.644h-20.617v2.644" class="C"/><path d="M314.785 824.565h-4.073c-.279 0-.466.233-.466.502-.003 3.537 1.547 6.066 1.674 2.71.194-5.1 1.655 1.356 3.3-2.589.124-.298-.103-.624-.435-.624" fill="#eb5a00"/><path d="M389.942 824.746c-1.019.592-2.233.618-3.305.181-1.138-.465-1.704-1.246-2.15-2.327l-.774-1.993c-.183-.519-.208-1.042-.112-1.537-7.396-.23-15.103-1.31-22.4-.92l.643 12.978c9.259-.619 18.32-.779 27.455-2.403 1.8-.266 3.347-1.361 4.277-2.885 1.346-2.967 2.021-6.018 2.466-9.119-1.137 3.217-3.034 6.244-6.1 8.026" class="Q"/><path d="M361.843 817.379l.23 15.146c6.27-.42 13.901-.369 20.15-1.249-.023-.272 1.462-8.584.298-12.498-6.864-1.057-15.235-1.691-20.678-1.4" class="F"/><path d="M372.181 832.072c3.464-.15 6.925-.357 10.041-.796-.007-.079.115-.846.263-1.99-3.374.932-6.718 1.899-10.165 2.535l-.139.251" fill="#ccc"/><g class="H"><path d="M297.208 832.068h3.217v-3.742h-3.217v3.742"/><use xlink:href="#C" x="-31.87"/></g><use xlink:href="#G" fill="#ac662f"/><use xlink:href="#H" class="H"/><g fill="#ac662f"><path d="M296.667 964.691h-25.443c-.255 0-1.269.888-1.269 1.983v.063c0 1.096 1.014 1.983 2.265 1.983h25.443c1.251 0 2.265-.887 2.265-1.983v-.063c0-1.095-1.014-1.983-3.261-1.983"/><use xlink:href="#G" x="-19.869" y="86.761"/><path d="M309.704 907.778H284.68c-1.367 0-2.474.839-2.474 1.875v.278c0 1.035 1.108 1.875 2.474 1.875h25.024c1.367 0 2.475-.84 2.475-1.875v-.278c0-1.036-1.108-1.875-2.475-1.875m6.623-28.457h-25.024c-1.367 0-2.474.839-2.474 1.875v.278c0 1.036 1.108 1.875 2.474 1.875h25.024c1.367 0 2.474-.839 2.474-1.875v-.278c0-1.036-1.108-1.875-2.474-1.875"/></g><path d="M301.78 828.809c-1.387-1.096-3.254-.244-3.699 1.688l-41.108 178.499c-.287 1.246.126 2.574 1.02 3.281 1.387 1.096 3.254.245 3.699-1.687L302.8 832.09c.287-1.246-.126-2.574-1.02-3.281" class="H"/><path d="M298.596 828.809c-1.387-1.096-3.254-.244-3.698 1.688l-41.108 178.499c-.287 1.246.126 2.574 1.02 3.281 1.387 1.096 3.254.245 3.698-1.687l41.108-178.501c.287-1.246-.126-2.574-1.02-3.281" class="I"/><g fill="#b67b4c"><use xlink:href="#G" x="16.301"/><use xlink:href="#H" x="82.532"/><path d="M365.744 964.691H340.72c-1.367 0-2.475.839-2.475 1.875v.278c0 1.036 1.108 1.875 2.475 1.875h25.024c1.367 0 2.475-.839 2.475-1.875v-.278c0-1.036-1.108-1.875-2.475-1.875m-6.623-28.457h-25.024c-1.367 0-2.474.84-2.474 1.875v.28c0 1.035 1.108 1.875 2.474 1.875h25.024c1.367 0 2.474-.84 2.474-1.875v-.28c0-1.035-1.108-1.875-2.474-1.875m-6.623-28.456h-25.024c-1.367 0-2.475.839-2.475 1.875v.278c0 1.035 1.108 1.875 2.475 1.875h25.024c1.367 0 2.475-.84 2.475-1.875v-.278c0-1.036-1.108-1.875-2.475-1.875m-6.623-28.457H320.85c-1.367 0-2.475.839-2.475 1.875v.278c0 1.036 1.108 1.875 2.475 1.875h25.024c1.367 0 2.474-.839 2.474-1.875v-.278c0-1.036-1.108-1.875-2.474-1.875"/></g><g class="O"><use xlink:href="#F" x="-31.966"/><path d="M304.035 832.068h3.216v-3.742h-3.216v3.742"/><use xlink:href="#C" x="57.25"/></g><use xlink:href="#F" x="-35.151" class="I"/><path d="M352.427 795.718c-5.906-.497-9.552-1.836-12.171 4.118s4.314 13.935 4.314 13.935l.363 4.89 12.047-.434-.225-1.663c2.619-.145 1.783-6.553 1.321-9.085s-1.474-11.412-5.649-11.762" class="J"/><path d="M345.882 811.939c-.512-1.323-.767-2.702-1.078-4.081l-.405-1.608-.253-.799c-.052-.148-.425-1.005-.043-.193l-.466-1.092.176.395c-.053-.224-.226-.479-.333-.683l-.76-1.338-2.099-3.472-.365.769c-2.619 5.956 4.314 13.935 4.314 13.935l.363 4.89 4.644-.167c-.702-.802-1.305-1.685-1.807-2.544-.746-1.277-1.357-2.639-1.888-4.011" class="Q"/><path d="M350.065 793.931c-2.876 0-8.422.894-9.706 3.028s-1.965 5.862-.924 9.181c1.284 4.095 4.981 8.339 4.981 8.339s5.768-.057 7.395-.932c.347-.185 2.293-2.307 2.242-3.896s1.276-3.685 1.533-3.884.642-2.109.745-3.102 1.926-2.466-.981-7.694c0 0-2.408-1.041-5.284-1.041" fill="#8e6041"/><path d="M354.122 805.097c-.847 1.042.243 3.8.693 4.095 2.157 1.415 1.078-3.76 1.078-3.76s-.715-1.635-1.772-.335" class="J"/><path d="M366.587 923.211l-8.431.721c-.349 2.838-4.957 6.299-8.879 8.657s1.52 4.367 3.278 4.522c5.275.464 13.868-2.672 16.718-3.878 1.194-.505 1.911-1.274 1.896-1.842-.102-3.911-4.582-8.18-4.582-8.18" class="D"/><path d="M372.971 821.006c-.512-3.049-7.413-4.071-13.99-3.449-8.821.834-10.921-.414-21.51 2.215-6.749 1.676-8.136 8.064-8.136 8.064-1.239 7.785 9.243 13.482 8.458 30.679-.21 4.605-.427 20.081 2.464 25.27s16.066 5.856 26.187.866 4.53-22.463 4.054-26.606c-.413-3.594.352-11.5 1.189-15.931 1.802-9.535 1.767-18.239 1.285-21.108" class="F"/><path d="M359.805 861.621c-4.847-.736-9.69-2.631-13.109-6.133-3.394-3.475-4.681-8.155-7.339-12.101-.277-.411-.571-.811-.869-1.208-.054-.066-.106-.138-.159-.199a18.76 18.76 0 0 0-.521-.588c-.396-.431-.814-.843-1.254-1.231-.153-.136-.312-.265-.469-.396-.36-.227-.399-.275-.333-.242a13.26 13.26 0 0 0-1.16-.697c-.234-.124-.475-.232-.711-.35l-.002-.002c-.014-.004-.028-.01-.042-.016a13.12 13.12 0 0 0-1.283-.387c2.589 4.802 5.676 10.823 5.237 20.444-.21 4.605-.427 20.081 2.464 25.27s16.066 5.856 26.187.866c7.908-3.899 6.224-15.418 4.882-22.246-3.856.004-7.738-.209-11.521-.784" fill="#ccc"/><use xlink:href="#I" class="L"/><use xlink:href="#I" class="M"/><path d="M412.185 786.326l-22.117-4.884-.21.887 22.015 4.862-.973 4.117-11.491 1.099c-.774.073-1.408.615-1.581 1.347l-.696 2.94.919.203.695-2.942a.85.85 0 0 1 .757-.643l11.567-1.107c.357-.034.651-.286.732-.625l1.014-4.287c.104-.434-.18-.869-.628-.968" fill="#0a7480"/><path d="M399.316 795.489l-2.665-.589c-.181-.039-.362.07-.402.245l-2.507 10.598c-.041.176.072.35.253.39l2.665.588c.181.04.361-.069.402-.244l2.507-10.6c.042-.175-.073-.348-.254-.389" class="G"/><path d="M410.602 782.564l-18.486-4.083c-.289-.064-.577.111-.643.39l-1.441 6.092a.52.52 0 0 0 .404.622l18.485 4.083c.289.064.577-.111.644-.39l1.441-6.094c.067-.278-.115-.558-.404-.621" fill="#ccc"/><path d="M394.095 781.731l-.754 1.439c-.037.076-.077.187-.121.299.044-.028-.015.181-.181.353l-.77 2.17 16.274 3.594c0-.54.325-5.446.777-7.304l-13.67-3.019-1.557 2.469" fill="#ff8d00"/><path d="M399.064 798.079l-.203.817s-.336.685-1.224.839c-1.332.229-2.403-.323-2.403-.323l.416-1.793s-1.439.368-3.151 2.116c-1.207 1.231-.309 7.023-.309 7.023l4.496 1.068 3.805-2.115c1.238-1.516 1.023-3.637.713-5.563-.523-3.263-2.14-2.068-2.14-2.068" class="B"/><path d="M366.369 845.789c-1.741-19.564-4.151-28.36-4.253-28.553-1.866-.124-4.184.274-4.184.274.405 8.935-.327 18.064-.941 17.078-5.223-8.363-12.824-16.248-12.824-16.248s-2.201.144-4.358.77c3.255 4.277 8.198 15.882 9.55 21.055 1.451 5.556 1.492 16.872-11.937 20.909-.049.015-.05.126-.012.314-1.409 6.255.351 20.023.351 20.023l.384 2.491.801 4.962 1.735 9.888 1.917 9.866.513 2.463.519 2.445 1.044 4.838 7.215 37.367s3.311.223 6.192.144c2.611-.072 5.446-.864 5.446-.864l-3.643-45.359s2.902-14.397 5.03-21.503c.438-1.463 5.224-2.991 8.489-10.156.122-.268.163-.567.23-.861l.047-.194c1.522-6.617-.723-13.172-2.089-18.891-.448-1.875-4.651-5.831-5.222-12.257" class="L"/><path d="M352.535 938.166l-.828-7.788-.008-4.383-.004-.015-2.606-8.385c-.81-2.759-1.413-5.568-1.659-8.43l-.197-3.848-.002-.01-.088-.461-.181-.793-.482-1.645-2.465-6.83c-.797-2.825-.816-5.76-1.116-8.656-.293-2.831-1.803-13.446-2.748-15.976-.351-.942-2.381-8.238-1.874-9.034-.003-.028-.007-.055-.01-.084-.033-.342-.035-.683-.01-1.023l-.835.268c-.049.015-.141.492-.141.508-1.409 6.254.481 19.828.481 19.828l.384 2.491.801 4.962 1.735 9.888 1.917 9.866.513 2.463.52 2.445 1.044 4.838 7.214 37.367s2.966.2 5.727.154a95.13 95.13 0 0 1-1.468-3.803c-1.632-4.522-2.878-9.178-3.613-13.915" class="M"/><path d="M324.782 847.601c-.746-.434-1.641-4.567-8.406-1.057-.831.431-2.188 1.537-1.94 2.835.436 2.273 2.611 2.921 2.611 2.921 6.864.962 6.64.06 6.64.06s1.84-4.326 1.094-4.759" class="B"/><path d="M323.448 850.83l-3.043-1.739s-2.885-.456-3.78 1.923c0 0 3.293 9.027 7.09 11.681 1.667 1.56 4.288 1.235 7.135-2.355 3.581-4.519 6.901-15.952 9.21-23.135l-11.915-2.604c-1.534 4.898-3.208 10.921-4.697 16.229" class="J"/><path d="M326.974 838.453c.705.103 1.396.417 2.023.974.947.84-2.866 2.527-3.228 3.784 1.187.87 5.808 3.954 5.331 5.319-.694 1.987-.881 2.376-1.807 4.293-1.143 2.369-3.339 4.109-6.087 4.286-1.76.114-3.379-.483-4.6-1.533 1.309 2.656 3.141 5.743 5.109 7.118 1.667 1.56 4.288 1.235 7.135-2.355 3.581-4.519 6.901-15.952 9.21-23.135l-11.915-2.604-1.171 3.852" class="Q"/><path d="M316.127 850.659l1.853 3.586c.634-3.929 3.768-3.821 5.073-3.893l-2.218-2.125s-3.813.052-4.708 2.432m74.249-41.273s4.437-.336 6.426 1.923l1.617-5.005-5.919-1.045-2.124 4.127" class="B"/><path d="M357.708 792.535c-2.257-1.244-4.582-.007-5.143.191l-1.451.531c.921.73 4.134 10.628 4.134 10.628 2.863-2.683 4.603-6.577 4.792-7.108.774-2.18-.735-3.363-2.331-4.243" class="N"/><path d="M346.359 791.626c-2.619.58-8.937 4.201-8.646 9.487.223 4.057 2.33 7.706 2.33 7.706s10.662 1.027 16.287-6.154c0 0 2.913-4.406.269-7.235s-5.636-4.823-10.24-3.804" class="G"/><path d="M343.821 792.633c-2.86 1.518-6.325 4.536-6.108 8.481.223 4.057 2.33 7.706 2.33 7.706s1.059.102 2.685.016c-2.045-2.011-2.855-5.236-2.555-7.974.341-3.114 1.759-5.802 3.648-8.229" class="N"/><path d="M324.481 842.672c.056.045 10.56 3.921 11.829 4.301l1.824.549c1.919-5.455 3.672-10.799 5.528-17.026l-13.761-4.385c-1.911 5.605-4.174 11.362-5.42 16.561" class="F"/><path d="M294.752 831.127h11.979v-5.016h-11.979v5.016" class="R"/><path d="M306.732 831.127h3.068v-5.016h-3.068v5.016" class="O"/><g class="B"><path d="M294.752 833.997h11.979v-2.87h-11.979v2.87"/><use xlink:href="#D" x="-32.759"/><use xlink:href="#E" x="-32.759"/><path d="M298.494 873.429h5.743v-2.305h-5.743v2.305m615.809-123.224h12.732v-16.157h-12.732z"/></g><path d="M914.303 746.604h10.073v-8.707h-10.073z" class="C"/><path d="M914.303 746.604h10.073v-6.269h-10.073z" class="K"/><path d="M927.145 749.655h-12.952c-.141 0-.255.111-.255.247v.056c0 .137.114.247.255.247h12.952c.141 0 .255-.111.255-.247v-.056c0-.137-.114-.247-.255-.247m0-15.883h-12.952c-.141 0-.255.111-.255.247v.057c0 .137.114.247.255.247h12.952c.141 0 .255-.111.255-.247v-.057c0-.137-.114-.247-.255-.247" class="R"/><path d="M921.204 749.655h-6.901v-3.05h5.101c.53 1.052 1.131 2.071 1.8 3.05m-4.47-11.757h-2.431v-3.573h2.185c.009 1.202.09 2.395.246 3.573" fill="#4b5a5d"/><path d="M917.167 740.336h-2.864v-2.438h2.431l.433 2.438" class="P"/><path d="M919.404 746.604h-5.101v-6.269h2.864c.488 2.178 1.236 4.282 2.237 6.269" fill="#e36d00"/><path d="M880.357 750.205h31.295l.84-41.287h-32.974l.839 41.287" fill="#f3f3f3"/><path d="M888.755 727.111l.355 14.15h22.751l.41-20.202h-23.616l.101 6.052" fill="#e0e0e0"/><path d="M888.702 724.367h23.502l.067-3.308h-23.616l.048 3.308" class="G"/><path d="M879.671 716.457h32.666l.154-7.539h-32.974l.153 7.539" fill="#dfdfdf"/><path d="M878.624 715.734h34.762v-6.816h-34.762z" fill="#f1f1f1"/><path d="M913.386 710.312h-34.762c-.313 0-.567.246-.567.549a.56.56 0 0 0 .567.551h34.762a.56.56 0 0 0 .568-.551.56.56 0 0 0-.568-.549m0 2.644h-34.762a.56.56 0 0 0-.567.551c0 .305.254.549.567.549h34.762a.56.56 0 0 0 .568-.549.56.56 0 0 0-.568-.551" class="C"/><path d="M909.665 735.566h-9.61a.45.45 0 0 1-.454-.443v-.772c-2.648-.877-5.484-2.378-8.179-4.299l-.325-1.172c3.152 2.301 6.521 4.031 9.565 4.86l.089.024 8.209-.28.113-.053c1.149-.545 2.13-1.19 2.941-1.935v.934c-.554.507-1.184.969-1.895 1.384v1.308a.45.45 0 0 1-.454.443m-8.771-2.953l-.959-.293c.039-.012.079-.016.12-.016h8.701l-.089.043-7.774.266" fill="#c9c9c9"/><path d="M879.591 715.734h2.835v-3.376h-2.835z" class="C"/><path d="M912.272 719.712c.803 2.022 1.879 5.032 1.039 7.689-.668 2.112-2.231 3.775-4.644 4.946l-7.774.266c-4.233-1.177-9.126-4.173-13.109-8.031-3.931-3.808-6.278-7.733-6.278-10.503a.58.58 0 0 0-.589-.572.58.58 0 0 0-.589.572c0 3.069 2.477 7.299 6.625 11.317s9.271 7.135 13.709 8.346l.089.024 8.209-.28.113-.053c2.784-1.321 4.59-3.239 5.366-5.699 1.515-4.805-1.916-10.565-2.109-10.893l-.058 2.872" fill="#7a7a7a"/><path d="M909.666 731.366h-9.614c-.249 0-.451.195-.451.438v2.386c0 .241.202.438.451.438h9.614c.251 0 .453-.197.453-.438v-2.386c0-.243-.202-.438-.453-.438" class="C"/><path d="M899.601 734.186a.45.45 0 0 0 .454.443h9.61a.45.45 0 0 0 .454-.443v-.289h-10.518v.289" fill="#e9e9e9"/><path d="M898.145 750.205h-13.324c.19 0 .344-.148.344-.332v-.076c0-.184-.154-.332-.344-.332h-.147v-4.102-8.433-3.279-4.807h.147c.19 0 .344-.15.344-.332v-.076a.34.34 0 0 0-.344-.333h-4.912l-.237-11.645h.819c.611 2.881 2.931 6.454 6.463 9.875.589.571 1.198 1.123 1.821 1.654l.335 13.275h5.819c.99 2.994 2.032 5.998 3.216 8.944m-9.424-24.747a37.91 37.91 0 0 1-.936-.877c-2.906-2.814-4.946-5.695-5.813-8.124h6.592a102.44 102.44 0 0 0 .733 4.603h-.643 0l.009.735v.072c.001.009.001.019.001.029l.056 3.563" class="P"/><path d="M894.929 741.262h-5.819l-.335-13.275a39.8 39.8 0 0 0 2.648 2.066l2.578 8.363.929 2.846m-4.313-14.199l-1.895-1.604-.056-3.563.037 2.472h1.267a92.66 92.66 0 0 0 .647 2.695m-1.953-5.196v-.072.072" fill="#d3d3d3"/><path d="M889.969 724.367h-1.267l-.037-2.472-.001-.029v-.072l-.009-.735h0 .643l.086.47.586 2.837" fill="#c32400"/><path d="M888.564 716.457h-6.592l-.227-.723h.681 6.042l.096.723m-8.073 0h-.819l-.015-.723h0 .714c.027.236.067.476.12.723" fill="#d2d2d2"/><path d="M888.468 715.734h-6.042v-1.679h4.041c.003.019.004.037.006.056.089.85.687 1.581 1.632 1.581.116 0 .234-.016.35-.043l.012.085m-8.876 0h-.968v-1.679h0 0 .968v1.679m6.781-2.779h-3.946v-.598h-2.835v.598h-.968v-1.544h0 0 7.662l.086 1.544m-.12-2.643h-7.628v-1.394h7.607l.021 1.394" fill="#e3e3e3"/><path d="M886.286 711.412h-7.662 0a.56.56 0 0 1-.567-.551c0-.305.254-.549.567-.549h0 7.628l.034 1.1m.181 2.643h-4.041v-1.1h3.946l.095 1.1m-6.876 0h-.968 0c-.313 0-.567-.246-.567-.549a.56.56 0 0 1 .567-.551h0 .968v1.1" fill="#f0f0f0"/><path d="M888.775 727.987l-1.821-1.654c-3.532-3.421-5.852-6.995-6.463-9.875h.251c.865 2.698 3.054 5.879 6.212 8.938.583.565 1.184 1.111 1.8 1.636 0 .027.001.053.001.08l.019.875" fill="#cdcdcd"/><path d="M891.422 730.052l-2.648-2.066-.019-.875-.001-.08 2.343 1.85.325 1.172" fill="#bdbdbd"/><path d="M880.741 716.457h-.251l-.12-.723h.168l.203.723" fill="#bcbcbc"/><path d="M882.426 715.734h-.681c-.157-.586-.237-1.141-.237-1.656a.58.58 0 0 0-.589-.572.58.58 0 0 0-.589.572c0 .52.071 1.075.209 1.656h-.168-.714-.065v-1.679-1.1-.598h2.835v3.377" fill="#f0f0f0"/><path d="M891.097 728.881l-2.343-1.85-1.8-1.636c-3.158-3.059-5.347-6.24-6.212-8.938-.079-.246-.147-.487-.203-.723-.138-.581-.209-1.136-.209-1.656a.58.58 0 0 1 .589-.572.58.58 0 0 1 .589.572c0 .515.08 1.069.237 1.656a9.77 9.77 0 0 0 .227.723c.867 2.429 2.907 5.31 5.813 8.124a37.91 37.91 0 0 0 .936.877c.616.556 1.25 1.092 1.895 1.604l.481 1.818" fill="#737373"/><path d="M867.549 750.205h17.125v-21.733h-17.125z" class="B"/><path d="M871.126 745.363h13.548V733.65h-13.548z" class="C"/><path d="M871.126 745.363h13.548v-8.433h-13.548z" fill="#00bcd3"/><path d="M884.821 749.465h-17.42c-.188 0-.343.148-.343.332v.076c0 .184.154.332.343.332h17.42c.19 0 .344-.148.344-.332v-.076c0-.184-.154-.332-.344-.332m0-21.363h-17.42c-.188 0-.343.149-.343.333v.076c0 .183.154.332.343.332h17.42c.19 0 .344-.15.344-.332v-.076a.34.34 0 0 0-.344-.333" class="R"/><path d="M880.008 749.465h-12.459v-20.621h1.578c.325 3.94.546 8.357 1.999 12.161v4.358h2.556c.264.302.545.595.844.875 1.569 1.475 3.452 2.517 5.482 3.227" fill="#4b5a5d"/><path d="M873.682 745.363h-2.556v-4.358c.607 1.585 1.426 3.065 2.556 4.358" fill="#00a9bd"/></svg>