<svg xmlns="http://www.w3.org/2000/svg" xmlns:xlink="http://www.w3.org/1999/xlink" height="1233.388" width="1153.185" xmlns:v="https://vecta.io/nano"><style><![CDATA[.B{fill:orange}.C{fill:#adc5e9}.D{fill:#3f3d6b}.E{fill:#9591bd}.F{fill:#eef8fd}.G{fill:#f89a74}.H{fill:#6966a3}.I{fill:#ffc600}.J{fill:#504d84}.K{fill:#8cacd2}.L{fill:#492e50}]]></style><defs><clipPath id="A"><path d="M8118.58 5766.22l-.7 23.21 29.96-19.37s-8.42-21.06-9.34-20.33c-.91.73-19.92 16.49-19.92 16.49z"/></clipPath><linearGradient id="B" spreadMethod="pad" y2="5769.57" x2="8147.838" y1="5769.57" x1="8117.88" xlink:href="#Y"><stop offset="0" stop-color="#fff"/><stop offset=".039" stop-color="#fff"/><stop offset="1" stop-color="#acc5e9"/></linearGradient><clipPath id="C"><path d="M8358.96 5614.64l-231.71 133.77c-13.88 8.02-12.14 22.02 3.89 31.27l419.47 242.18c16.03 9.26 40.27 10.26 54.15 2.25l231.71-133.78c13.88-8.01 12.14-22.01-3.89-31.26l-419.47-242.18c-16.03-9.26-40.27-10.26-54.15-2.25z"/></clipPath><linearGradient id="D" spreadMethod="pad" y2="5819.37" x2="8845.837" y1="5819.37" x1="8117.88" xlink:href="#Y"><stop offset="0" stop-color="#fff"/><stop offset=".039" stop-color="#fff"/><stop offset="1" stop-color="#acc5e9"/></linearGradient><clipPath id="E"><path d="M9739.66 5016.66c-20.12 0-40.3 4.44-55.74 13.36l-394.18 227.58c-2.98 1.72-5.68 3.55-8.08 5.45-23.09 18.31-19.53 44.15 10.12 59.87l306.06 162.32 25.87 13.72-27.9-14.8 481.39-280.59-280.7-172.72c-15.34-9.44-36.06-14.19-56.84-14.19"/></clipPath><linearGradient id="F" spreadMethod="pad" gradientTransform="matrix(846.341,488.635,488.635,-846.341,9381.67,5083.1)" y2="0" x2="1" y1="0" x1="0" xlink:href="#Y"><stop offset="0" stop-color="#fff"/><stop offset=".039" stop-color="#fff"/><stop offset="1" stop-color="#acc5e9"/></linearGradient><clipPath id="G"><path d="M10077.2 5203.57l-481.39 280.59 27.9 14.8 62.03 32.89 478.86-274.51-87.4-53.77"/></clipPath><linearGradient id="H" spreadMethod="pad" gradientTransform="matrix(846.341,488.635,488.635,-846.341,9381.67,5083.1)" y2="0" x2="1" y1="0" x1="0" xlink:href="#Y"><stop offset="0" stop-color="#cac7d4"/><stop offset=".039" stop-color="#cac7d4"/><stop offset="1" stop-color="#8396c3"/></linearGradient><clipPath id="I"><path d="M10907.5 4834.96c-3.9 0-8.3 1.25-12.9 3.9l-685.1 392.75-43.2 24.76-1.7.97-478.86 274.51h0l-580.94 333.04-133.63 76.6c-15.87 9.1-28.86 31.34-28.86 49.42l.03 213.82c4.79-11.18 12.99-21.5 22.25-26.84l1931.31-1115.03c4.2-2.42 8.1-3.56 11.7-3.56 8.8 0 14.8 7.09 14.8 19.27l-3.1 1408.48c0 10.54-4.6 22.54-11.5 32.16 9.4-10.83 15.9-25.7 15.9-38.49l-.2-1464.84v-64.31l-.1-96.38c0-12.81-6.5-20.23-15.9-20.23"/></clipPath><linearGradient id="J" spreadMethod="pad" y2="6235.81" x2="10923.67" y1="6235.81" x1="8942.31" xlink:href="#Y"><stop offset="0" stop-color="#fff"/><stop offset=".039" stop-color="#fff"/><stop offset="1" stop-color="#acc5e9"/></linearGradient><clipPath id="K"><path d="M10242 3443.35c-27.3 103.05-187.6 156.29-390.5 243.08-45.7 19.55-93.56 40.79-142.56 64.7-8.53 4.92-7.45 13.6 2.4 19.29l81.88 47.27a16.01 16.01 0 0 1 .88-.71c237.6-151.25 472.2-226.4 447.9-373.63h0m0 0l758.2 442.38c.2 1.46.3 2.91.4 4.38.2-2.91.2-5.82.1-8.74l-758.7-438.02"/></clipPath><linearGradient id="L" spreadMethod="pad" gradientTransform="matrix(-274.299,475.1,475.1,274.299,10493.3,3588.39)" y2="0" x2="1" y1="0" x1="0" xlink:href="#Y"><stop offset="0" stop-color="#9fafbf"/><stop offset="0" stop-color="#9fafbf"/><stop offset="1" stop-color="#e5edf6"/></linearGradient><clipPath id="M"><path d="M10242 3443.35h0c24.3 147.23-210.3 222.38-447.9 373.63a16.01 16.01 0 0 0-.88.71c-6.53 5.7-4.66 14.46 4.48 19.91l662.9 395.49 36.3 21.66c4.8 2.85 10.7 4.27 16.3 4.27s11-1.41 14.7-4.23c262.7-104.91 436.8-220.47 467.9-325.46 3.9-13.25 5.5-26.35 4.8-39.22-.1-1.47-.2-2.92-.4-4.38l-758.2-442.38m-257.71 365.69c-2.35 0-4.78-.5-6.74-1.52-3.97-2.06-4.55-5.42-1.29-7.51l256.34-163.94c1.6-1.05 3.9-1.58 6.3-1.58s4.8.51 6.8 1.53c3.9 2.06 4.5 5.42 1.2 7.5l-256.26 163.94c-1.65 1.06-3.95 1.58-6.35 1.58m84.11 54.34c-2.4 0-4.8-.51-6.8-1.53-3.9-2.06-4.5-5.42-1.3-7.51l256.3-163.94c1.7-1.05 4-1.58 6.4-1.58 2.3 0 4.8.51 6.7 1.53 4 2.06 4.6 5.42 1.3 7.5l-256.3 163.95c-1.6 1.05-3.9 1.58-6.3 1.58m84.1 54.33c-2.4 0-4.8-.51-6.8-1.53-4-2.06-4.5-5.42-1.3-7.51l256.3-163.94c1.7-1.05 4-1.58 6.4-1.58 2.3 0 4.7.51 6.7 1.53 4 2.06 4.6 5.42 1.3 7.5l-256.3 163.95c-1.6 1.05-4 1.58-6.3 1.58m86 75.07c-2.3 0-4.8-.51-6.7-1.53-4-2.06-4.6-5.41-1.3-7.5l256.3-163.95c1.6-1.05 3.9-1.57 6.3-1.57s4.8.5 6.8 1.52c3.9 2.06 4.5 5.42 1.2 7.51l-256.2 163.94c-1.7 1.05-4 1.58-6.4 1.58m84.1 54.33c-2.4 0-4.8-.51-6.8-1.53-3.9-2.06-4.5-5.41-1.2-7.5l256.3-163.94c1.6-1.06 3.9-1.58 6.3-1.58s4.8.5 6.7 1.52c4 2.06 4.6 5.42 1.3 7.51l-256.3 163.94c-1.6 1.05-3.9 1.58-6.3 1.58m84.1 54.33c-2.4 0-4.8-.51-6.8-1.53-4-2.06-4.5-5.41-1.3-7.5l256.3-163.94c1.7-1.06 4-1.58 6.4-1.58 2.3 0 4.8.5 6.7 1.52 4 2.06 4.6 5.42 1.3 7.51l-256.3 163.94c-1.6 1.05-3.9 1.58-6.3 1.58m84 54.33c-2.3 0-4.7-.51-6.7-1.53-4-2.05-4.5-5.41-1.3-7.5l256.3-163.94c1.7-1.06 4-1.58 6.4-1.58 2.3 0 4.7.51 6.7 1.52 4 2.06 4.6 5.42 1.3 7.51l-256.3 163.94c-1.7 1.05-4 1.58-6.4 1.58m84.1 54.33c-2.3 0-4.8-.51-6.7-1.53-4-2.05-4.6-5.41-1.3-7.5l256.3-163.94c1.6-1.06 3.9-1.58 6.3-1.58s4.8.51 6.8 1.53c4 2.05 4.5 5.41 1.3 7.5l-256.3 163.94c-1.7 1.05-4 1.58-6.4 1.58"/></clipPath><linearGradient id="N" spreadMethod="pad" gradientTransform="matrix(-225.447,534.822,470.504,280.71,10511.9,3594.41)" y2="0" x2="1" y1="0" x1="0" xlink:href="#Y"><stop offset="0" stop-color="#9fafbf"/><stop offset="0" stop-color="#9fafbf"/><stop offset="1" stop-color="#fff"/></linearGradient><clipPath id="O"><path d="M10829.4 4035.55c-2.4 0-4.7.52-6.3 1.58l-256.3 163.94c-3.3 2.09-2.7 5.45 1.3 7.5 1.9 1.02 4.4 1.53 6.7 1.53 2.4 0 4.7-.53 6.4-1.58l256.3-163.94c3.2-2.09 2.7-5.45-1.3-7.5-2-1.02-4.4-1.53-6.8-1.53"/></clipPath><clipPath id="P"><path d="M10563.5 4035.55h277.199v174.551H10563.5z"/></clipPath><linearGradient id="Q" spreadMethod="pad" gradientTransform="matrix(-225.447,534.822,470.504,280.71,10511.9,3594.41)" y2="0" x2="1" y1="0" x1="0" xlink:href="#Y"><stop offset="0" stop-color="#8f99b7"/><stop offset="0" stop-color="#8f99b7"/><stop offset="1" stop-color="#d5d2e5"/></linearGradient><clipPath id="R"><path d="M10745.4 3981.22c-2.4 0-4.7.52-6.4 1.58l-256.3 163.94c-3.2 2.09-2.7 5.45 1.3 7.5 2 1.02 4.4 1.53 6.7 1.53 2.4 0 4.7-.53 6.4-1.58l256.3-163.94c3.3-2.09 2.7-5.45-1.3-7.51-2-1.01-4.4-1.52-6.7-1.52"/></clipPath><clipPath id="S"><path d="M10661.3 3926.89c-2.4 0-4.7.52-6.4 1.58l-256.3 163.94c-3.2 2.09-2.7 5.44 1.3 7.5 2 1.02 4.4 1.53 6.8 1.53s4.7-.53 6.3-1.58l256.3-163.94c3.3-2.09 2.7-5.45-1.3-7.51-1.9-1.02-4.4-1.52-6.7-1.52"/></clipPath><clipPath id="T"><path d="M10577.2 3872.56c-2.4 0-4.7.52-6.3 1.58l-256.3 163.94c-3.3 2.09-2.7 5.44 1.2 7.5 2 1.02 4.4 1.53 6.8 1.53s4.7-.53 6.3-1.58l256.3-163.94c3.3-2.09 2.7-5.45-1.3-7.51-1.9-1.02-4.3-1.52-6.7-1.52"/></clipPath><clipPath id="U"><path d="M10493.1 3818.23c-2.4 0-4.7.52-6.3 1.57l-256.3 163.95c-3.3 2.09-2.7 5.44 1.3 7.5 1.9 1.02 4.4 1.53 6.7 1.53 2.4 0 4.7-.53 6.4-1.58l256.2-163.94c3.3-2.09 2.7-5.45-1.2-7.51-2-1.02-4.4-1.52-6.8-1.52"/></clipPath><clipPath id="V"><path d="M10407.1 3743.15c-2.4 0-4.7.53-6.4 1.58l-256.3 163.94c-3.2 2.09-2.7 5.45 1.3 7.51 2 1.02 4.4 1.53 6.8 1.53 2.3 0 4.7-.53 6.3-1.58l256.3-163.95c3.3-2.08 2.7-5.44-1.3-7.5-2-1.02-4.4-1.53-6.7-1.53"/></clipPath><clipPath id="W"><path d="M10323 3688.82c-2.4 0-4.7.53-6.4 1.58l-256.3 163.94c-3.2 2.09-2.6 5.45 1.3 7.51 2 1.02 4.4 1.53 6.8 1.53s4.7-.53 6.3-1.58l256.3-163.95c3.3-2.08 2.7-5.44-1.3-7.5-1.9-1.02-4.4-1.53-6.7-1.53"/></clipPath><clipPath id="X"><path d="M10238.9 3634.49c-2.4 0-4.7.53-6.3 1.58l-256.34 163.94c-3.26 2.09-2.68 5.45 1.29 7.51 1.96 1.02 4.39 1.52 6.74 1.52 2.4 0 4.7-.52 6.35-1.58l256.26-163.94c3.3-2.08 2.7-5.44-1.2-7.5-2-1.02-4.4-1.53-6.8-1.53"/></clipPath><linearGradient id="Y" gradientUnits="userSpaceOnUse"/></defs><path d="M557.034 525.804c-30.85-2.282-96.954-29.851-120.011-6.793-73.138 73.138 65.106 330.029-99.632 384.942C-97.332 1048.86 258.013 5 0 5" fill="none" stroke="orange" stroke-width="10"/><g transform="matrix(-.133333 0 0 -.133333 1931.3773 1282.0866)"><path d="M12873.1 2009.99l11.8 1.74c35.2 5.22 59.5 38 54.3 73.22l-291.5 1965.95c-5.3 35.21-38 59.52-73.2 54.31l-11.8-1.75c-35.2-5.22-59.5-38-54.3-73.21l291.5-1965.95c5.3-35.22 38-59.53 73.2-54.31M10149.4 365.5c-38.3 3.301-66.7 37.082-63.4 75.441l273.9 3180.129c3.3 38.36 37 66.78 75.4 63.48 38.4-3.31 66.8-37.08 63.5-75.45l-273.9-3180.12c-3.3-38.371-37.1-66.789-75.5-63.48" class="F"/><path d="M10372 2136.77l-132.7 90.76 38 381.99 141.2-22.07-46.5-450.68m2250.7 1124.53l126 99.89-64.8 378.36-139.4-31.98 78.2-446.27" class="C"/><path d="M7536.67 2393.38L6184.08 3174.3c-125.35 72.37-74.63 231.11 112.73 352.76l486.2 315.69c187.35 121.65 944.91 205.83 1070.26 133.46l846.86-520.63c125.35-72.37 78.64-535.27-108.71-656.92l-486.2-315.69c-187.35-121.64-443.2-161.96-568.55-89.59" class="B"/><path d="M8454.17 2306.31c-8.19-6.39-127.69-58.4-135.35-64.38-11.75-9.15-46.63-34.21-67.59-47.67-44.13-28.32-140.29-139.86-282.22-49.84-207.69 131.73 322.34 445.25 322.34 445.25l232.66 105.55c28.33 12.85 61.55 11.03 89.48-4.89 51.57-29.4 69.15-96.17 37.65-144.38-54.05-82.73-59.55-132.4-196.97-239.64" fill="#1a2437"/><path d="M8433.54 2371.69c-8.19-6.39-127.69-58.4-135.35-64.37-11.75-9.16-46.63-34.22-67.59-47.67-44.13-28.33-140.29-139.87-282.22-49.85-207.69 131.73 322.34 445.25 322.34 445.25l232.66 105.55c28.33 12.85 61.55 11.03 89.48-4.89h0c51.57-29.39 69.15-96.16 37.65-144.38-54.05-82.72-59.56-132.4-196.97-239.64" fill="#844047"/><path d="M8583.74 2526.65c12.83 22.02 32.98 63.94 49.76 89.62 31.5 48.21 10.93 110.05-40.64 139.44-27.93 15.92-61.15 17.74-89.48 4.89l-113.55-51.51c64.02-26.85 136.68-88.26 193.91-182.44" fill="#8d4549"/><path d="M7525.71 3120.99c169.18 114.95 341.78 233.11 528.53 318.22 7.07 3.22 14.54 5.96 21.44 9.54-55.62-28.84-30.68-12.43-15.29-6.8 12.38 4.53 24.64 9.28 37.18 13.36 14.13 4.61 54.84 22.69 69.89 17.14-12.43 4.58-63.53-6.89-21.26-4.54 27.19 1.52 31-18.28-25.39 5.18 4.63-1.93 15.39-4.87 20.06-4.93 15.29-.21-37.56 16.06-36.79 15.74 4.55-1.9 9.06-4.59 13.11-7.39 11.62-8.01-49.6 42.04-23.36 16.82 22.55-21.66-30.77 51.26-17.13 22.26 2.45-5.2 6.25-13.25 9.67-17.8-32.06 42.7-18.18 47.88-9.35 18.78 4.86-15.97 7.29-32.29 10.61-48.59 4.73-23.14-7.21 67.28-2.94 20.01l2.91-35.63c3.09-47.48 3.56-95.11 4.37-142.67l1.52-76.03c.3-11.39-1.28-24.82.9-35.97-9.6 49.01 11.56 55.33 3.23 31.1-2.35-6.81-4.09-13.89-6.4-20.73-5.43-16.13-32.29-75.28-4.16-13.65-9.79-21.46-18.82-43.34-28.28-64.97-27.48-62.81-54.82-125.77-79.54-189.73-49.57-128.26-83.38-260.74-90.58-398.59-5.45-104.31 95.59-204 199.36-199.36 112.67 5.05 193.53 87.62 199.36 199.36.69 13.13-1.28 33.63 3.45 45.96-17.16-44.71-.64-5.57 1.98 8.55 4.76 25.73 10.68 51.25 17.38 76.55 15.78 59.68 36.33 118.04 58.97 175.44 5.25 13.3 9.79 28.01 16.47 40.66-22.2-42.06-6.1-14.32-1-2.47l28.43 65.19c21.79 49.82 45.27 99.49 62.64 151.06 21.99 65.28 16.26 132.73 15.11 200.24-.89 52.05-1.23 104.22-4.9 156.18-8.35 118.39-29.04 238.15-118.25 324.45-109.24 105.67-273.05 96.34-405.54 46.46-229.37-86.34-436.2-227.23-637.65-364.12-86.11-58.5-132.6-178.02-71.53-272.76 55.27-85.72 180.52-134.21 272.77-71.52" fill="#cba57f"/><path d="M8253.3 2580.32c-88.45-69.07-262.83-49.29-323.42 47.69-3.88-51.4-6.89-102.8-8.47-154.21-6.41-209.48 319.23-228.1 325.67-17.82 1.27 41.45 3.45 82.9 6.22 124.34" fill="#e4edf6"/><path d="M7846.23 2665.33l-4.3-144.4c-.19-6.21 1.43-12.19 4.83-17.38 20.06-30.61 100.17-133.93 257.59-114.98 138.03 16.62 213.79 55.64 243.15 74.2 9.11 5.76 14.28 15.85 13.88 26.62l-5.41 147.56c-.81 22.03-24.13 36.11-43.71 25.97-71.96-37.31-229.95-89.93-419.55 26.89-19.96 12.3-45.78-1.05-46.48-24.48" fill="#e4bc9a"/><path d="M7202.12 3342.66h0c18.21-39.11-54.74 146.42-25.83 114.4 60.23-66.7 388.95-472.17 474.54-499.53 103.4-33.05-165.85 206.86-165.85 206.86s861.13 502.72 843.01 527.57c-141.73 194.35-276.13 255.14-547.86 149.43-309.33-120.34-665.12-311.55-578.01-498.73" fill="#b89473"/><path d="M8979.17 2010.7c-8.4-6.11-129.54-54.16-137.4-59.88-12.04-8.77-47.73-32.67-69.12-45.42-45.04-26.86-144.81-135.18-283.71-40.53-203.24 138.49 336.82 434.4 336.82 434.4l236.01 97.83c28.73 11.91 61.88 9.01 89.27-7.83 50.57-31.07 65.94-98.38 32.88-145.53-56.75-80.91-63.88-130.37-204.75-233.04" fill="#1a2437"/><path d="M8960.7 2076.73c-8.4-6.12-129.54-54.17-137.4-59.88-12.04-8.77-47.73-32.67-69.12-45.42-45.04-26.86-144.81-135.18-283.71-40.54-203.24 138.5 336.82 434.4 336.82 434.4l236.01 97.84c28.73 11.91 61.88 9 89.27-7.83 50.57-31.07 65.95-98.39 32.88-145.54-56.75-80.9-63.88-130.37-204.75-233.03" fill="#844047"/><path d="M9115.92 2226.66c13.54 21.59 35.06 62.82 52.68 87.94 33.07 47.15 14.54 109.63-36.03 140.7-27.4 16.83-60.54 19.74-89.27 7.83l-115.18-47.75c63.09-28.94 133.7-92.71 187.8-188.72" fill="#8d4549"/><path d="M7903.12 2860.62c163.26 117.76 326.21 239.37 500.5 340.63 26.35 15.31 53.07 30.03 80.49 43.36l19.01 8.98c25.6 12.9-27.2-11.07-25.98-10.72 13.37 3.85 26.16 10.27 39.57 14.29 8.77 2.63 17.75 4.27 26.54 6.73 33.3 9.34-60.75-4.62-24.03-3.47 24.26.75 42.71-10.67-25.61 5.2 40.03-9.3-49.03 27.19-20.93 10.06 20.35-12.42-48.2 42.97-23.15 17.3 20.78-21.3-35.03 50.01-17.08 21.25 21.81-34.98-12.13 41.36-8.11 20.68 1.95-10.07 5.58-20.35 8.06-30.34 11.09-44.51-3.7 46.23-1.64 17.3l2.84-37.22c1.41-29.33 1.1-58.74.11-88.08-3.98-117.94-2.49-235.61-1.72-353.65 1.28-194.99 3.41-390.86-10.41-585.48-7.4-104.25 96.99-203.95 199.36-199.36 114.34 5.12 191.44 87.68 199.36 199.36 22.41 315.69 3.79 632.75 12.43 948.77 3.62 132.34-8.25 282.84-111.83 378.15-130.91 120.45-305.03 70.83-445.88.66-204.06-101.64-389.03-247.32-573.14-380.11-84.36-60.85-133.73-176.28-71.53-272.77 53.93-83.64 182.31-136.76 272.77-71.52" fill="#cba57f"/><path d="M8787.42 2291.18c-90.68-66.13-264.3-40.61-321.67 58.3-5.57-51.24-10.28-102.51-13.54-153.84-13.3-209.16 311.55-238.48 324.9-28.54 2.63 41.39 6.18 82.75 10.31 124.08" fill="#e4edf6"/><path d="M8383.37 2389.53l-9.05-144.18c-.39-6.19 1.03-12.22 4.26-17.52 19.04-31.26 95.7-137.16 253.66-123.4 138.5 12.07 215.51 48.58 245.46 66.16 9.3 5.46 14.79 15.37 14.75 26.15l-.55 147.66c-.08 22.04-22.93 36.89-42.83 27.39-73.15-34.92-232.79-82.32-418.44 40.68-19.54 12.95-45.79.46-47.26-22.94" fill="#e4bc9a"/><path d="M8628.62 1605.89l4.35.64c29.38 4.36 49.67 31.71 45.31 61.09l-209.35 1411.23c-4.36 29.38-31.71 49.67-61.09 45.31l-4.34-.65c-29.38-4.36-49.67-31.71-45.31-61.09l209.35-1411.22c4.35-29.38 31.7-49.67 61.08-45.31" class="F"/><g class="C"><path d="M6019.86 3415.34l-16.81 2.49c-26.92 4-45.5 29.06-41.51 55.97l304.65 2054.21c3.99 26.92 29.05 45.51 55.97 41.52l16.81-2.5c26.92-3.99 45.5-29.05 41.51-55.97l-304.65-2054.21c-3.99-26.92-29.05-45.5-55.97-41.51m187.48 1754.7h-369.73v214.73h369.73v-214.73M12929.7 3797.1H12560v214.73h369.7V3797.1"/><path d="M10451.2 2460.95L5884.77 5097.4c-71.59 41.33-62.61 113.52 20.05 161.24l2130.8 1230.22c82.66 47.73 207.7 52.91 279.29 11.58l4566.49-2636.45c71.6-41.33 62.6-113.52-20.1-161.24l-2130.8-1230.22c-82.6-47.73-207.7-52.91-279.3-11.58"/></g><path d="M10451.2 2666.91L5884.77 5303.36c-71.59 41.33-62.61 113.52 20.05 161.24l2130.8 1230.22c82.66 47.73 207.7 52.91 279.29 11.58l4566.49-2636.45c71.6-41.33 62.6-113.52-20.1-161.24l-2130.8-1230.22c-82.6-47.73-207.7-52.91-279.3-11.58" class="F"/><path d="M7206.17 3856.09l-945.28-730.25c-154.38-94.52-270.29-.7-270.13 161.73l-18.01 264.44c.15 162.43 126.58 372.66 280.96 467.17l953.16 583.59c154.38 94.51 280.56 38.95 280.41-123.47l-.15-156.04c-.15-162.42-126.59-372.65-280.96-467.17" class="B"/><path d="M5980.37 1539.55h0c-30.57 4.53-51.68 33-47.15 63.57l263.41 1776.13c4.54 30.58 33 51.69 63.58 47.15 30.57-4.53 51.68-33 47.15-63.57L6043.95 1586.7c-4.54-30.58-33-51.69-63.58-47.15m1244.98-755.39h0c-31.65 4.699-53.49 34.149-48.8 65.801l297.12 2003.359c4.69 31.65 34.15 53.49 65.79 48.8 31.64-4.7 53.49-34.15 48.8-65.79L7291.14 832.961c-4.69-31.641-34.15-53.488-65.79-48.801" class="F"/><path d="M7463.85 2203.67l-1195.8 690.4c-128.53 74.21-199.57 222.03-199.57 222.03-48.11 110.46 66.63 190.4 195.17 116.19l1257.34-740.25c128.54-74.21 177.04-151.72 156.28-243.74 0 0-50.5-128.7-213.42-44.63" class="B"/><path d="M9856.6 4618.98l-1329.93 767.84c-7.61 4.39-17 4.35-24.57-.12l-403.74-238.29c-16.07-9.48-15.96-32.76.2-42.09l1325.43-765.24c7.54-4.35 16.83-4.35 24.37 0l408.24 235.69c16.24 9.38 16.24 32.83 0 42.21" class="C"/><path d="M9449.28 4393.55l-1325.44 765.24c-16.16 9.33-16.27 32.61-.2 42.09l403.74 238.29c7.57 4.47 16.96 4.51 24.57.12l1329.93-767.84c16.25-9.38 16.25-32.83 0-42.21l-408.24-235.69a24.32 24.32 0 0 0-24.36 0" fill="#fff"/><g class="C"><path d="M8593.09 5320.08c-2.14-1.23-6.51-.73-9.73 1.13l-89.41 51.6c-3.23 1.87-4.11 4.39-1.97 5.62l59.23 34.22c2.15 1.24 6.5.73 9.73-1.13l89.42-51.6c3.22-1.86 4.11-4.38 1.96-5.62l-59.23-34.22m103.73-154.07c-2.16-1.25-6.49-.76-9.76 1.13l-89.41 51.6c-3.22 1.86-4.08 4.36-1.91 5.61l59.25 34.23c2.1 1.21 6.45.72 9.67-1.14l89.41-51.59c3.26-1.89 4.11-4.39 2-5.61l-59.25-34.23m-52.44-63.96c-2.15-1.25-6.49-.72-9.7 1.14l-89.43 51.61c-3.18 1.83-4.13 4.36-1.99 5.6l59.27 34.23c2.09 1.22 6.51.68 9.68-1.15l89.43-51.61c3.22-1.85 4.1-4.38 2-5.59l-59.26-34.23m-141.88-12.35c-2.12-1.22-6.49-.72-9.69 1.13l-89.42 51.6c-3.19 1.84-4.07 4.37-1.95 5.59l59.25 34.23c2.12 1.23 6.52.73 9.7-1.11l89.43-51.61c3.2-1.84 4.05-4.37 1.93-5.6l-59.25-34.23m-91.9-53.06c-2.14-1.24-7.3-.26-11.55 2.19l-117.15 67.61c-4.19 2.42-5.91 5.41-3.77 6.65l69.56 40.18c2.09 1.21 7.33.24 11.52-2.18l117.15-67.6c4.25-2.45 5.9-5.46 3.81-6.67l-69.57-40.18m769.62-444.79c-1.78-1.02-5.84-.34-9.06 1.51l-89.35 51.57c-3.26 1.88-4.47 4.24-2.69 5.27l25.72 14.86c1.76 1.01 5.87.33 9.13-1.55l89.35-51.57c3.22-1.85 4.38-4.21 2.62-5.23l-25.72-14.86m119.47-70.73c-1.78-1.03-5.84-.35-9.06 1.51l-89.35 51.56c-3.26 1.88-4.47 4.25-2.69 5.27l25.72 14.86c1.76 1.02 5.87.33 9.13-1.55l89.35-51.56c3.22-1.86 4.38-4.22 2.62-5.23l-25.72-14.86m126.66-71.44c-1.71-.99-5.74-.27-8.96 1.59l-89.38 51.58c-3.2 1.85-4.49 4.2-2.78 5.19l24.77 14.31c1.7.98 5.79.25 8.99-1.6l89.38-51.58c3.22-1.86 4.45-4.2 2.75-5.18l-24.77-14.31m-77.9 98.71c-1.71-.99-5.74-.27-8.96 1.59l-89.38 51.58c-3.2 1.85-4.49 4.19-2.78 5.18l24.78 14.32c1.69.98 5.78.24 8.98-1.61l89.38-51.58c3.22-1.85 4.45-4.19 2.76-5.17l-24.78-14.31"/><path d="M9025.68 4681.73c-2.14-1.23-6.53-.7-9.76 1.16l-581.87 335.79c-3.17 1.83-4.12 4.38-1.99 5.62l69.57 40.18c2.09 1.21 6.55.69 9.72-1.14l581.87-335.79c3.23-1.86 4.11-4.42 2.02-5.63l-69.56-40.19"/><path d="M8966.08 4732.64c-.14-.07-2.36 1.09-4.93 2.57l-463.1 267.25-4.42 2.83 4.32 2.49c.13.08 2.38-1.09 4.9-2.55l463.1-267.24 4.45-2.85-4.32-2.5m-341.01 286.38c-2.11-1.22-6.48-.72-9.72 1.15l-89.41 51.6c-3.17 1.83-4.1 4.39-1.99 5.61l59.25 34.23c2.13 1.23 6.57.69 9.74-1.14l89.41-51.59c3.25-1.87 4.1-4.4 1.97-5.63l-59.25-34.23m123.11-71.04c-2.11-1.22-6.51-.71-9.68 1.12l-89.4 51.6c-3.21 1.85-4.12 4.39-2 5.61l59.25 34.23c2.13 1.23 6.54.71 9.75-1.14l89.4-51.59c3.18-1.83 4.06-4.37 1.93-5.6l-59.25-34.23m123.12-71.05c-2.11-1.22-6.49-.72-9.68 1.12l-89.42 51.61c-3.2 1.84-4.07 4.36-1.95 5.59l59.25 34.22c2.12 1.23 6.51.74 9.7-1.11l89.42-51.6c3.2-1.84 4.06-4.37 1.93-5.6l-59.25-34.23m123.13-71.06c-2.11-1.22-6.47-.72-9.69 1.13l-89.42 51.6c-3.24 1.87-4.11 4.4-1.99 5.62l59.25 34.23c2.13 1.22 6.51.73 9.74-1.14l89.42-51.6c3.22-1.86 4.07-4.38 1.94-5.61l-59.25-34.23m123.14-71.05c-2.12-1.23-6.53-.71-9.76 1.16l-89.39 51.58c-3.19 1.85-4.07 4.37-1.95 5.6l59.25 34.22c2.13 1.23 6.51.73 9.7-1.11l89.39-51.58c3.24-1.87 4.13-4.42 2.01-5.65l-59.25-34.22m123.13-71c-2.12-1.23-6.5-.72-9.71 1.13l-89.4 51.59c-3.22 1.86-4.1 4.39-1.99 5.62l59.25 34.22c2.13 1.23 6.53.73 9.75-1.13l89.39-51.59c3.21-1.85 4.09-4.39 1.96-5.62l-59.25-34.22m277.32-160.04c-2.12-1.22-6.49-.72-9.71 1.14L9264.7 4645.5c-3.22 1.86-4.09 4.38-1.97 5.6l59.25 34.23c2.12 1.23 6.5.73 9.72-1.12l243.61-140.59c3.22-1.85 4.08-4.38 1.96-5.61l-59.25-34.23M8766.9 5031.4c-2.15-1.24-6.43-.75-9.66 1.12l-89.43 51.61c-3.21 1.85-4.11 4.34-1.96 5.58l59.26 34.24c2.1 1.21 6.45.72 9.67-1.14l89.43-51.61c3.23-1.86 4.05-4.35 1.96-5.57l-59.27-34.23m123.15-71.07c-2.15-1.24-6.49-.71-9.68 1.13l-89.46 51.63c-3.18 1.83-4.08 4.33-1.93 5.57l59.26 34.24c2.1 1.21 6.46.71 9.64-1.13l89.46-51.62c3.18-1.84 4.07-4.37 1.97-5.58l-59.26-34.24m123.12-71.05c-2.15-1.24-6.51-.7-9.7 1.14l-89.41 51.6c-3.17 1.83-4.15 4.37-2 5.61l59.26 34.24c2.1 1.21 6.54.66 9.71-1.16l89.41-51.6c3.19-1.84 4.09-4.38 2-5.59l-59.27-34.24m123.1-71.04c-2.15-1.24-6.48-.72-9.69 1.13l-89.39 51.59c-3.22 1.86-4.13 4.36-1.99 5.6l59.27 34.24c2.1 1.21 6.47.71 9.69-1.15l89.39-51.59c3.21-1.85 4.08-4.37 1.99-5.58l-59.27-34.24m123.18-71.02c-2.15-1.24-6.5-.71-9.69 1.13l-89.45 51.62c-3.22 1.86-4.11 4.35-1.96 5.59l59.26 34.23c2.1 1.21 6.45.73 9.67-1.13l89.45-51.62c3.19-1.84 4.08-4.38 1.98-5.59l-59.26-34.23m123.08-71.03c-2.15-1.24-6.47-.72-9.68 1.13l-89.38 51.58c-3.25 1.87-4.16 4.37-2.01 5.61l59.26 34.24c2.1 1.21 6.47.71 9.72-1.17l89.38-51.58c3.21-1.85 4.07-4.36 1.97-5.58l-59.26-34.23m123.12-71.05c-2.15-1.24-6.48-.72-9.68 1.12l-89.45 51.62c-3.19 1.85-4.07 4.33-1.93 5.57l59.27 34.24c2.1 1.21 6.44.72 9.63-1.12l89.45-51.62c3.19-1.84 4.07-4.36 1.97-5.58l-59.26-34.23m-686.28 490.21c-2.16-1.25-6.52-.74-9.74 1.12l-89.42 51.6c-3.18 1.83-4.06 4.35-1.9 5.6l59.26 34.23c2.1 1.21 6.46.71 9.64-1.12l89.42-51.6c3.23-1.87 4.1-4.39 1.99-5.6l-59.25-34.23m123.09-71.04c-2.16-1.25-6.53-.73-9.71 1.1l-89.41 51.6c-3.21 1.86-4.11 4.38-1.94 5.63l59.25 34.23c2.1 1.21 6.48.71 9.69-1.15l89.42-51.6c3.18-1.83 4.06-4.36 1.96-5.58l-59.26-34.23m123.14-71.06c-2.16-1.24-6.52-.74-9.76 1.13l-89.4 51.59c-3.19 1.85-4.07 4.36-1.91 5.61l59.25 34.23c2.11 1.21 6.47.71 9.66-1.13l89.41-51.59c3.24-1.87 4.1-4.39 2-5.6l-59.25-34.24m123.09-71.03c-2.16-1.25-6.48-.76-9.71 1.1l-89.42 51.6c-3.22 1.86-4.1 4.38-1.94 5.63l59.25 34.23c2.1 1.21 6.47.71 9.69-1.15l89.43-51.6c3.22-1.87 4.06-4.37 1.96-5.58l-59.26-34.23m123.16-71.01c-2.17-1.25-6.53-.74-9.69 1.08l-89.43 51.61c-3.23 1.87-4.09 4.37-1.93 5.62l59.26 34.23c2.1 1.21 6.44.72 9.68-1.14l89.42-51.61c3.17-1.82 4.04-4.35 1.94-5.56l-59.25-34.23m123.14-71.07c-2.16-1.25-6.52-.74-9.77 1.14l-89.4 51.59c-3.17 1.83-4.08 4.36-1.92 5.61l59.25 34.23c2.11 1.22 6.5.7 9.67-1.13l89.41-51.6c3.24-1.87 4.12-4.39 2.02-5.61l-59.26-34.23m123.1-71.04c-2.16-1.24-6.52-.73-9.72 1.11l-89.42 51.6c-3.22 1.86-4.09 4.37-1.93 5.62l59.25 34.23c2.11 1.21 6.46.72 9.68-1.14l89.43-51.6c3.19-1.85 4.06-4.37 1.96-5.58l-59.25-34.24m-984.39 567.96c-2.16-1.25-6.52-.74-9.75 1.12l-151.6 87.49c-3.23 1.87-4.12 4.38-1.95 5.63l59.25 34.23c2.1 1.22 6.47.71 9.7-1.15l151.61-87.49c3.23-1.86 4.1-4.38 2-5.6l-59.26-34.23m1189.09-591.88c-2.14-1.23-6.5-.73-9.72 1.13l-151.62 87.5c-3.17 1.82-4.09 4.37-1.95 5.6l59.24 34.22c2.14 1.24 6.54.71 9.71-1.12l151.61-87.5c3.22-1.85 4.11-4.37 1.96-5.61l-59.23-34.22m-1241.56 527.93c-2.15-1.24-6.45-.73-9.7 1.15l-180.74 104.3c-3.23 1.86-4.14 4.36-1.99 5.6l59.26 34.24c2.1 1.21 6.47.71 9.69-1.16l180.75-104.3c3.25-1.88 4.09-4.38 1.99-5.59l-59.26-34.24m-141.81-12.38c-2.12-1.22-6.5-.72-9.72 1.14l-120.51 69.55c-3.23 1.86-4.1 4.39-1.99 5.61l59.26 34.23c2.12 1.22 6.5.73 9.73-1.13l120.51-69.55c3.22-1.86 4.09-4.39 1.97-5.62l-59.25-34.23m336.76 88.32c-2.14-1.24-6.48-.74-9.74 1.14l-89.36 51.56c-3.22 1.86-4.11 4.39-1.97 5.62l59.23 34.22c2.15 1.24 6.52.73 9.74-1.13l89.35-51.57c3.26-1.88 4.13-4.38 1.98-5.62l-59.23-34.22m122.58-70.68c-2.14-1.24-6.52-.72-9.74 1.14l-89.42 51.6c-3.19 1.84-4.1 4.37-1.96 5.61l59.24 34.22c2.14 1.24 6.52.72 9.72-1.13l89.42-51.6c3.22-1.86 4.12-4.38 1.97-5.62l-59.23-34.22m123.06-71.02c-2.13-1.24-6.45-.76-9.68 1.11l-89.42 51.6c-3.2 1.85-4.08 4.37-1.94 5.6l59.23 34.22c2.15 1.24 6.5.73 9.7-1.12l89.42-51.6c3.23-1.87 4.07-4.35 1.93-5.59l-59.24-34.22m123.17-71.08c-2.14-1.23-6.52-.72-9.73 1.14l-89.37 51.57c-3.24 1.87-4.11 4.38-1.97 5.62l59.23 34.22c2.15 1.24 6.5.73 9.74-1.14l89.36-51.57c3.22-1.85 4.12-4.38 1.97-5.62l-59.23-34.22m123.07-71.02c-2.14-1.24-6.44-.76-9.68 1.11l-89.4 51.58c-3.24 1.88-4.11 4.39-1.97 5.63l59.23 34.22c2.15 1.24 6.5.73 9.74-1.14l89.39-51.59c3.24-1.87 4.07-4.35 1.92-5.59l-59.23-34.22m123.19-71.03c-2.14-1.24-6.52-.72-9.7 1.11l-89.45 51.62c-3.19 1.85-4.06 4.36-1.92 5.59l59.23 34.22c2.15 1.24 6.49.74 9.69-1.1l89.45-51.62c3.18-1.84 4.08-4.36 1.93-5.6l-59.23-34.22m123.12-71.05c-2.14-1.24-6.5-.73-9.73 1.13l-89.4 51.59c-3.24 1.87-4.13 4.4-1.99 5.63l59.23 34.22c2.15 1.24 6.52.72 9.75-1.14l89.41-51.6c3.22-1.86 4.11-4.37 1.96-5.61l-59.23-34.22m123.08-71.03c-2.14-1.24-6.48-.74-9.67 1.1l-89.48 51.63c-3.18 1.84-4.04 4.35-1.9 5.59l59.23 34.21c2.15 1.25 6.49.74 9.67-1.09l89.47-51.64c3.2-1.84 4.06-4.34 1.91-5.58l-59.23-34.22m71.6-62.66c-1.48.86-3.31 1.5-5.24 1.72-1.89.22-3.41-.02-4.4-.6l-59.26-34.23c-.99-.57-1.45-1.47-1.07-2.57.42-1.09 1.48-2.17 2.96-3.02l23.35-13.47-77.7-44.89c-1.01-.58-1.4-1.5-1.01-2.58.38-1.09 1.48-2.15 2.99-3.02l60.24-34.76c1.52-.88 3.35-1.52 5.26-1.75 1.9-.24 3.46.01 4.47.59l140.85 81.37c1 .57 1.4 1.46.99 2.56-.38 1.12-1.49 2.17-3.01 3.05l-89.42 51.6"/></g><path d="M6669.19 4901.39c74.35-100.66 148.59-202.39 230.6-297.03 40.19-46.39 86.2-98.22 146.85-116.77 81.4-24.9 160.45 23.23 184.96 102.33 10.89 35.12 10.19 74.1 12.28 110.6l1.71 24.69c2.02 34-7.81-31.36-.86-5.36 1.71 6.4 3.04 13.15 4.42 19.64 7.52 35.3-11.9-21.11-1.63-2.38 14.81 27.01-22.08-23.1-4.68-6.06 13.06 12.8-30.06-21.15-14.4-11.35 9.39 5.87 25.28 8.61-16.78-6.55 28.55 10.29-21.92 2.65-8.53-.01 24.01-4.77 54.12-.51 78.44.94 228.54 13.68 436.59 113.37 628.43 231.99 90.03 55.66 177.14 116.31 269.13 168.78 20.21 11.53 40.68 22.65 61.63 32.79 8.38 4.07 16.87 7.87 25.34 11.74-33.08-15.1 2.93.58 10.16 3.01 17.83 6 35.74 9.65 54.04 13.69-37.12-8.2-15.47-1.32-4.86-1.89 10.46-.56 43.81-4.49.74 2.1 68.4-10.47 137.93 17.3 157.8 89.59 16.68 60.72-20.7 147.25-89.6 157.79-177.01 27.09-330.5-74.9-473.21-166.47-83.16-53.36-165.87-107.56-252.41-155.37-99.42-54.92-166.53-86.33-275.3-113.12-55.57-13.68-74.75-16.67-125.49-18.77-40.5-1.68-80.93 3.05-120.67-8.21-69.21-19.61-117.43-72.82-140.62-139.31-13.57-38.92-16.99-80.94-19.35-121.9l-2.29-43.65c-.81-29.83 4.46 23.05 2.25 13.75-6.37-26.76 4.69 7.82 7.29 12.24 15.89 27 54.6 54.4 96.91 54.26 39.77-.13 38.56-6.98 25.73-3.05 39.05-11.94 30.22-13.65 17.42-6.16-16.02 9.38 8.63 4.56 12.91-10.37-1.07 3.73-12.52 11-15.49 13.79-9.86 9.25-19.15 19.12-28.31 29.06-82.43 89.47-140.91 172.83-213.03 270.49-41.1 55.64-111.17 83.65-175.51 46.01-54.88-32.1-87.41-119.45-46.02-175.5" class="G"/><path d="M10588.6 4337.94c-96.1-55.52-252.5-55.25-349.2.61-96.8 55.85-97.3 146.14-1.1 201.65 96.1 55.52 252.4 55.25 349.2-.6 96.7-55.85 97.2-146.14 1.1-201.66m1326.2-308.74c-84.4-48.84-221.7-48.7-306.6.3-84.8 49.01-85.2 128.33-.8 177.17s221.7 48.71 306.6-.3 85.2-128.33.8-177.17" class="C"/><g fill="#7d78c3"><path d="M10488.6 4363.89c-85-49.07-223.2-48.82-308.7.55-85.5 49.38-85.9 129.18-1 178.24 85 49.06 223.2 48.81 308.8-.56 85.5-49.37 85.9-129.17.9-178.23"/><path d="M10515.6 4449.12l-400.1 1.5v356.33l400.1-3.33v-354.5"/></g><path d="M10433.2 4805.46v-325.62l-.4-12.63c.3-54.91-28-64.5-70.7-89.13-25.6-14.77-57.1-31.16-89.4-37 74.9-13.5 159.2 5.98 218.3 40.09 42.7 24.63 63.5 43.75 63.2 98.67h-.2l-1.3 322.98-119.5 2.64" fill="#706bbc"/><path d="M10488.6 4714.22c-85-49.06-223.2-48.81-308.7.56s-85.9 129.17-1 178.24c85 49.06 223.2 48.81 308.8-.56 85.5-49.37 85.9-129.17.9-178.24" fill="#b7acdd"/><path d="M10462.8 4731.76c-70.2-40.55-184.4-40.35-255.1.46s-71 106.76-.8 147.31 184.5 40.34 255.1-.46c70.7-40.81 71.1-106.76.8-147.31" fill="#a599d4"/><path d="M10462 4815.6c-70.6 40.8-184.9 41.01-255.1.46-20.9-12.05-35.3-26.35-43.8-41.56 8.6-15.44 23.3-30.01 44.6-42.28 70.7-40.81 184.9-41.01 255.1-.46 20.9 12.04 35.4 26.35 43.8 41.56-8.5 15.44-23.3 30.01-44.6 42.28" class="J"/><path d="M10206.9 4731.76c-20.9 12.04-35.3 26.35-43.8 41.56 4.9 8.83 11.9 17.36 20.9 25.35 61.1 10.22 129.5 1.56 177.4-26.1 20.8-12.05 35.3-26.35 43.7-41.56 3.9-6.76 6.6-13.33 7.7-19.63-10.6-2.57-20.3-4.59-28.6-5.72-61-10.22-129.4-1.56-177.3 26.1" fill="#6562a0"/><path d="M10476.1 4653.83c31.2-16.43 65.6-28.17 77.3-65.64 7.6-24.52 1.9-61.43 1.9-86.95-.1-21.38 6.3-75.66-18.4-76.02-12.8-.19-36 16.97-47.6 23.01-17.2 8.88-32.3-17-15.2-25.91 20.7-10.71 53.2-34.6 78-30.98 31 4.53 31.9 38.83 32.6 62.98 1.2 46.32 9.5 106.5-2.7 151.54-10.9 40.41-57.2 56.21-90.8 73.87-17.1 8.98-32.2-16.91-15.1-25.9" class="D"/><g fill="#504b81"><path d="M6648.94 5149.25c-82.85-89.61-80.36-147.51-90.45-274.68-9.87-124.34 63.68-235.8 180.97-275.02l1168.67-390.78s326.87 454.38-56.8 619.29c-199.58 85.78-334.68 204.31-484.21 308.09-219.64 152.42-526.78 220.1-718.18 13.1"/><path d="M6535.1 3149.86c-78.14 27.81-56.67 1110.99 36.02 1851.76l1367.71-623.34c-121.09-641.06-120.68-1127.6-66.71-1891.7L6535.1 3149.86"/></g><path d="M7938.83 4378.28l-227.02 101.29c-138.1-651.49-165.24-1124.12-65.11-1858.23l-3.78 1.09c.36-42.51-31.69-88.69-94.19-125.42h0c-111.36-65.44 51.81-98.69 163.16-33.24l289.56 570.32c-62.62 627.11-217.86 494.09-62.62 1344.19" fill="#403f6a"/><g class="B"><path d="M8681.74 2802.51l-953.16-583.59c-154.37-94.52-273.7-50.16-265.17 98.58l8.2 142.89c8.54 148.74 141.83 347.77 296.2 442.29l953.16 583.59c154.37 94.52 273.7 50.16 265.17-98.58l-8.2-142.89c-8.53-148.74-141.82-347.77-296.2-442.29"/><path d="M6058.38 3180.21L5911 4511.5c-28.68 193.7 140.62 246.74 366.66 114.87l903.93-527.34c162.86-95.01 312.69-262.67 374.59-419.16l341.87-864.29c98-247.77-233.87-651.44-462.05-515.1l-1377.62 879.73"/></g><path d="M9667.95 4063.37l-179.87-123.27c-66.31-45.43-157.74-28.37-203.18 37.94h0c-45.46 66.31-28.39 157.75 37.93 203.2l179.87 123.26c66.31 45.44 157.74 28.37 203.18-37.93h0c45.46-66.31 28.39-157.75-37.93-203.2" class="D"/><path d="M7933.99 4342.52c106.09-94.96 201.03-198.98 295.02-305.63 66.25-75.17 136.19-145.34 231.37-182.02 227.88-87.84 482.95 64.59 680.48 163.71 137.27 68.87 250.02 132.32 391.31 167.27 160.19 39.63 92.34 287.1-68.2 247.39-123.24-30.49-239.96-87.6-353.33-143.54l-178.23-88.92-83.88-40.09c-34.09-15.71-43.28-19.85-68.4-29.7-47.45-18.61-95.45-33.31-145.36-43.6-23.06-4.75 19.33-.89-10.18-.42-9.6.16-19.22-.53-28.85-.25-10.5.3-20.89 1.6-31.36 2.2 24.23-1.38 13.34-1.87-2.49 2.23-8.54 2.22-17.59 6.86-26.16 8.26 16.31-2.67 19.19-9.91 2.72-.31-6.66 3.88-13.43 7.49-19.94 11.65-13.48 8.6-23.87 21.97-6.1 3.43-28.72 29.97-60 56.92-87.82 88.1-99.45 111.46-197.64 221.8-309.2 321.64-51.6 46.19-130.51 50.9-181.4 0-46.98-46.98-51.83-135.02 0-181.4" class="G"/><path d="M7694.35 4460l491.07-479.11C8345 3864 8554.67 4157.88 8430.92 4265l-478.11 500.43c-79.4 68.16-186.69 67.8-248.14-.83-64.05-71.54-84.31-223.1-10.32-304.6" fill="#504b81"/><path d="M8111.13 4054.72c135.86 44.99 228.79 121.07 272.18 261.4 15.95 51.6-64.85 73.66-80.74 22.26-34.51-111.64-106.39-167.39-213.7-202.93-50.9-16.86-29.09-97.74 22.26-80.73" fill="#feffff"/><path d="M8879.96 5880h-.17c-.02 10-2.93 10.53-9.2 14.15l-231.7 134.07c-13.88 8.02-38.13 7.17-54.15-2.09l-419.48-242.11c-8.36-4.82-12.73-10.89-13.13-16.77l-.13.1.7-23.2.13-.11c-2.08-6.51.57-13.09 8.54-17.69l231.71-133.77c6.94-4.01 16.47-5.76 26.27-5.35 9.8.4 19.87 2.97 27.88 7.59l419.47 242.19c8.52 4.91 12.87 11.16 13.12 17.14l.09-.58.05 26.43" class="C"/><g clip-path="url(#A)"><path d="M8118.58 5766.22l-.7 23.21 29.96-19.37s-8.42-21.06-9.34-20.33c-.91.73-19.92 16.49-19.92 16.49" fill="url(#B)"/></g><g clip-path="url(#C)"><path d="M8358.96 5614.64l-231.71 133.77c-13.88 8.02-12.14 22.02 3.89 31.27l419.47 242.18c16.03 9.26 40.27 10.26 54.15 2.25l231.71-133.78c13.88-8.01 12.14-22.01-3.89-31.26l-419.47-242.18c-16.03-9.26-40.27-10.26-54.15-2.25" fill="url(#D)"/></g><path d="M8384.18 5743.21l166.43 278.65c16.03 9.26 40.27 10.26 54.15 2.25l231.71-133.78c13.88-8.01 12.14-22.01-3.89-31.26l-419.47-242.18c-8.02-4.63-18.09-7.2-27.88-7.6l-1.05 133.92" fill="#b7d3ef"/><path d="M8566.72 5835.62l42.53 57.73 236.59 9.94-.06-27.05-258.55-82.39-20.51 41.77" fill="#92b0df"/><path d="M8150.86 5750.27c0-4.02-2.84-5.65-6.35-3.62s-6.35 6.93-6.35 10.96c0 4.02 2.84 5.64 6.35 3.62 3.51-2.03 6.35-6.93 6.35-10.96m208.1-109.15l-231.71 133.78c-13.88 8.01-12.14 22.01 3.89 31.26l419.47 242.19c16.03 9.25 40.27 10.25 54.15 2.24l231.71-133.77c13.88-8.02 12.14-22.01-3.89-31.27l-419.47-242.18c-16.03-9.25-40.27-10.26-54.15-2.25" class="D"/><path d="M8728.39 5956.14l-63.98 36.93c-2.64 1.53-2.31 4.21.74 5.97s7.7 1.95 10.34.43l63.97-36.94c2.64-1.52 2.31-4.21-.74-5.96-3.05-1.76-7.7-1.96-10.33-.43" class="J"/><path d="M8263.8 5678l-51.39 29.67c-2.18 1.26-3.96 4.66-3.96 7.56s1.78 4.25 3.96 2.99l51.39-29.66c2.17-1.26 3.95-4.66 3.95-7.57 0-2.9-1.78-4.24-3.95-2.99" class="D"/><path d="M8772.9 5836.57l25.3 14.61c1.5.87 2.73 3.22 2.73 5.22s-1.23 2.93-2.73 2.06l-25.3-14.61c-1.5-.86-2.73-3.21-2.73-5.21s1.23-2.93 2.73-2.07m-35.89-22.53l25.31 14.61c1.5.86 2.73 3.21 2.73 5.21s-1.23 2.93-2.73 2.06l-25.31-14.6c-1.5-.87-2.73-3.22-2.73-5.22s1.23-2.93 2.73-2.06m-444.88-89.01c-10.72-6.19-28.17-6.16-38.97.07s-10.85 16.31-.12 22.5c10.73 6.2 28.18 6.17 38.97-.07 10.8-6.23 10.85-16.31.12-22.5" class="J"/><path d="M8563.67 6034.49l-352.73-203.65c-8.22-4.75-8.22-16.6 0-21.35l214.15-123.64a12.34 12.34 0 0 1 12.33 0l352.73 203.65c8.22 4.74 8.22 16.6 0 21.34l-214.16 123.65c-3.81 2.2-8.5 2.2-12.32 0" fill="#a4ccee"/><g fill="#86a4c6"><path d="M11810.4 4078.05c-93.3-53.86-245-53.58-338.9.61s-94.3 141.79-1.1 195.64c93.3 53.86 245 53.58 338.9-.61s94.3-141.79 1.1-195.64"/><path d="M11288.8 4512.14l112.7-345.66 476.8-7.83 108.8 333.14-698.3 20.35"/></g><path d="M11851.7 4490l-108.9-340h0c-6.2-20-28.8-53.82-67.9-76.4-28.3-16.33-62-26.28-97.7-32.42 80.5-13.54 170.1-4.54 233.2 31.84 39.1 22.59 61.6 56.98 67.8 76.98h.1l108.8 340h-135.4" fill="#7392af"/><path d="M11891.5 4389.16c-137.8-79.56-362-79.15-500.6.91-138.7 80.06-139.4 209.46-1.6 289.02s361.9 79.15 500.6-.91 139.4-209.46 1.6-289.02" fill="#96b6d5"/><path d="M11853.5 4416.3c-118.3-68.3-310.7-67.95-429.7.77-119.1 68.72-119.7 179.8-1.4 248.09s310.7 67.94 429.7-.78c119.1-68.72 119.7-179.79 1.4-248.08" fill="#303156"/><path d="M11406 4610.77h0c-14.7 19.29-27.8 41.02-30.2 65.15-2.5 24.14 8.3 50.97 30.4 60.95 25.7 11.6 56.2-2.85 76.1-22.78s34.1-45.31 55.6-63.52l-82.6 261.62c-8.4 26.47-16.9 54.38-11.2 81.57 5.6 27.19 30.7 52.5 58.1 48.01 52.6-8.64 44.9-97.72 91.7-123.26-34.1 64.85-57.5 135.33-68.9 207.71-6.7 42.33-8.9 87.69 10.2 126.06s65.7 65.87 105.8 50.65c49.5-18.83 59.2-83.54 61-136.53l6.8-204.53c16.7 68.27 42.6 147.04 109.3 169.21 18.2-93.53 4.3-192.99-38.8-277.96 17.7 31.02 52.1 51.74 87.8 52.78 16.8-95.38-15.8-198.14-84.6-266.33l56.9 63.26c17-66.08-6.1-140.83-57.3-185.91-120-105.59-294.6-13.08-376.1 93.85" fill="#64caac"/><path d="M9088.27 5786.07l1747.53-1031.65c12.2-7.23 28.1-6.9 41.5.87l126.2 72.87c29 16.73 32.3 57.11 5.9 72.68L9261.88 5932.49c-12.24 7.22-28.06 6.89-41.51-.88l-126.21-72.87c-28.99-16.73-32.26-57.11-5.89-72.67" class="C"/><path d="M10911.7 4838.31l96.5 65.72-263.7 324.73 92.7-153.87 74.5-236.58" class="K"/><path d="M8949 7649.74l93.49 75.4 206.92-232s-131.96-97.06-143.95-97.06c-12 0-156.46 253.66-156.46 253.66" fill="#bad1ed"/><path d="M9683.92 4976.66l-394.18 227.58c-31.63 18.26-30.7 47.96 2.04 65.33l556.67 295.22c30.84 16.35 78.69 15.68 108.49-1.52l354.46-204.67c30.1-17.34 31-45.22 2.1-62.99l-517-318.12c-30.19-18.58-81.19-18.95-112.58-.83" class="K"/><g clip-path="url(#E)"><path d="M9739.66 5016.66c-20.12 0-40.3 4.44-55.74 13.36l-394.18 227.58c-2.98 1.72-5.68 3.55-8.08 5.45-23.09 18.31-19.53 44.15 10.12 59.87l306.06 162.32 25.87 13.72-27.9-14.8 481.39-280.59-280.7-172.72c-15.34-9.44-36.06-14.19-56.84-14.19" fill="url(#F)"/></g><path d="M9623.71 5498.96l62.03 32.89h0l-62.03-32.89" fill="#8397c3"/><path d="M10078.9 5202.59l-1.7.98 87.4 53.77 1.7-.97-87.4-53.78" fill="#6a83af"/><g clip-path="url(#G)"><path d="M10077.2 5203.57l-481.39 280.59 27.9 14.8 62.03 32.89 478.86-274.51-87.4-53.77" fill="url(#H)"/></g><path d="M10987.7 6610.62l-2.6-.62h.6L9083.07 7712.55l-17.69 11.4c-14.5 8.43-32.1-1.24-32.1-19.21l16.02-4.74h10.7V5949.59c0-19.52 7.45-42.99 23.2-52.15l1924.7-916.09 2.1 1580.5v2.84c0 17.96-7.9 37.5-22.3 45.93" fill="#bad1ed"/><path d="M10201.6 5928.08c247.3 248.72 386.6-457.09 542.9-844 78.4-194.03 262.6-182.04 262.6-182.04l2.9 1649.43v7.55c0 9.75-.7 23.81-5.5 33.03l-802.9-663.97" class="K"/><g clip-path="url(#I)"><path d="M10907.5 4834.96c-3.9 0-8.3 1.25-12.9 3.9l-685.1 392.75-43.2 24.76-1.7.97-478.86 274.51h0l-580.94 333.04-133.63 76.6c-15.87 9.1-28.86 31.34-28.86 49.42l.03 213.82c4.79-11.18 12.99-21.5 22.25-26.84l1931.31-1115.03c4.2-2.42 8.1-3.56 11.7-3.56 8.8 0 14.8 7.09 14.8 19.27l-3.1 1408.48c0 10.54-4.6 22.54-11.5 32.16 9.4-10.83 15.9-25.7 15.9-38.49l-.2-1464.84v-64.31l-.1-96.38c0-12.81-6.5-20.23-15.9-20.23" fill="url(#J)"/></g><path d="M10895.9 5062.86L8964.59 6177.89c-14.64 8.44-26.64 29.34-26.68 46.42l-3.09 1408.48c-.04 17.09 11.9 24.16 26.53 15.71l1931.25-1115.02c14.7-8.45 26.7-29.34 26.7-46.43l3.1-1408.48c0-17.08-11.9-24.15-26.5-15.71" class="D"/><path d="M10822.1 5253.32L9005.01 6302.41l3.93 1221.12L10826 6474.44l-3.9-1221.12" fill="#a4ccee"/><path d="M10378.7 6467.78l-987.97 570.41c-14.49 8.36-26.23 30.79-26.23 50.11 0 19.31 11.74 28.18 26.23 19.82l987.97-570.41c14.5-8.36 26.2-30.8 26.2-50.11s-11.7-28.19-26.2-19.82" class="H"/><path d="M10389 6148.58l-795.68 459.39c-14.48 8.36-26.23 30.8-26.23 50.11 0 19.32 11.74 28.19 26.23 19.83l795.68-459.39c14.5-8.36 26.2-30.8 26.2-50.11 0-19.32-11.7-28.2-26.2-19.83" class="B"/><path d="M10389 5974.22l-263.1 151.93c-14.5 8.37-26.3 30.8-26.3 50.12 0 19.31 11.8 28.19 26.3 19.82l263.1-151.93c14.5-8.36 26.2-30.8 26.2-50.11s-11.7-28.19-26.2-19.83m-656.74 379.18l-127.39 73.55c-14.49 8.36-26.23 30.8-26.23 50.11s11.74 28.19 26.23 19.83l127.39-73.55c14.48-8.36 26.23-30.8 26.23-50.11 0-19.32-11.75-28.19-26.23-19.83m-159.2-93.28l-168.17 97.09c-14.48 8.37-26.22 30.8-26.22 50.12 0 19.31 11.74 28.18 26.22 19.82l168.17-97.09c14.48-8.36 26.23-30.8 26.23-50.11s-11.75-28.19-26.23-19.83" class="H"/><path d="M9843.47 5928.17l-438.57 253.21c-14.49 8.36-26.23 30.8-26.23 50.11 0 19.32 11.74 28.19 26.23 19.83l438.57-253.21c14.48-8.37 26.23-30.8 26.23-50.11 0-19.32-11.75-28.19-26.23-19.83" class="B"/><path d="M10383.9 5792.01l-683.7 394.71c-14.49 8.36-26.23 30.8-26.23 50.11s11.74 28.19 26.23 19.83l683.7-394.71c14.4-8.37 26.2-30.8 26.2-50.12 0-19.31-11.8-28.19-26.2-19.82m-383.98 406.85l-110.24 63.65c-14.49 8.37-26.23 30.8-26.23 50.11 0 19.32 11.74 28.19 26.23 19.83l110.24-63.65c14.48-8.36 26.28-30.8 26.28-50.11 0-19.32-11.8-28.19-26.28-19.83m-132.26 422.12l-274.34 158.39c-14.49 8.36-26.23 30.8-26.23 50.11 0 19.32 11.74 28.19 26.23 19.83l274.34-158.4c14.49-8.36 26.23-30.79 26.23-50.11 0-19.31-11.74-28.19-26.23-19.82" class="H"/><path d="M10041.9 6520.38l-76.99 44.45c-14.49 8.37-26.23 30.8-26.23 50.11 0 19.32 11.74 28.2 26.23 19.83l76.99-44.46c14.5-8.36 26.2-30.8 26.2-50.11s-11.7-28.19-26.2-19.82" fill="#d92576"/><path d="M9494.39 6102.79l-424.07 220.33 620.65 228.47 404.23-233.39-111.55-40-93.97 54.25c-3.7 2.14-7.22 3.15-10.41 3.15-9.31 0-15.82-8.6-15.82-22.98 0-19.31 11.74-41.74 26.23-50.11l19.24-11.11-123.15-44.15-85.57 49.41c-3.7 2.13-7.22 3.15-10.42 3.15-9.3 0-15.81-8.6-15.81-22.98 0-19.31 11.74-41.75 26.23-50.11l10.84-6.26-113.16-40.56-192.98 111.42c-3.71 2.14-7.23 3.15-10.42 3.15-9.3 0-15.81-8.6-15.81-22.98 0-19.31 11.74-41.75 26.23-50.11l118.25-68.28-28.76-10.31m-99.91 327.51c-9.3 0-15.81-8.6-15.81-22.97 0-19.32 11.74-41.75 26.22-50.12l168.17-97.09c3.7-2.13 7.22-3.14 10.41-3.14 9.3 0 15.82 8.59 15.82 22.97 0 19.31-11.75 41.75-26.23 50.11l-168.17 97.09c-3.7 2.14-7.22 3.15-10.41 3.15m199.97 69.73c-9.3 0-15.81-8.59-15.81-22.97 0-19.31 11.74-41.75 26.23-50.11l127.39-73.55c3.7-2.14 7.22-3.15 10.41-3.15 9.3 0 15.82 8.6 15.82 22.98 0 19.31-11.75 41.75-26.23 50.11l-127.39 73.55c-3.71 2.13-7.23 3.14-10.42 3.14m575.55-155.04l-405.05 233.83 108.08 39.79c1.75-.53 3.44-.78 5.04-.78 5.03 0 9.23 2.5 12.04 7.07l132.19 48.65 356.4-205.77c3.7-2.14 7.2-3.15 10.4-3.15 9.3 0 15.8 8.59 15.8 22.97 0 19.31-11.7 41.75-26.2 50.11l-282.4 163.07 135.3 49.81 418.8-233.36-480.4-172.24m-215.51 292.93c-9.3 0-15.81-8.59-15.81-22.98 0-19.31 11.74-41.74 26.23-50.11l76.99-44.45c3.7-2.14 7.2-3.15 10.4-3.15 9.3 0 15.8 8.59 15.8 22.97 0 19.31-11.7 41.75-26.2 50.11l-76.99 44.46c-3.7 2.14-7.22 3.15-10.42 3.15" fill="#bddcf4"/><path d="M10389.1 6464.63c-3.2 0-6.7 1.01-10.4 3.15l-356.4 205.77 74 27.23 282.4-163.07c14.5-8.36 26.2-30.8 26.2-50.11 0-14.38-6.5-22.97-15.8-22.97" class="E"/><path d="M10095.2 6318.2l-404.23 233.39 73.98 27.23 405.05-233.83-74.8-26.79" class="I"/><path d="M9742.67 6350.25c-3.19 0-6.71 1.01-10.41 3.15l-127.39 73.55c-14.49 8.36-26.23 30.8-26.23 50.11 0 14.38 6.51 22.97 15.81 22.97 3.19 0 6.71-1.01 10.42-3.14l127.39-73.55c14.48-8.36 26.23-30.8 26.23-50.11 0-14.38-6.52-22.98-15.82-22.98m-159.2-93.27c-3.19 0-6.71 1.01-10.41 3.14l-168.17 97.09c-14.48 8.37-26.22 30.8-26.22 50.12 0 14.37 6.51 22.97 15.81 22.97 3.19 0 6.71-1.01 10.41-3.15l168.17-97.09c14.48-8.36 26.23-30.8 26.23-50.11 0-14.38-6.52-22.97-15.82-22.97" class="E"/><path d="M9523.15 6113.1l-118.25 68.28c-14.49 8.36-26.23 30.8-26.23 50.11 0 14.38 6.51 22.98 15.81 22.98 3.19 0 6.71-1.01 10.42-3.15l192.98-111.42-74.73-26.8" class="I"/><path d="M9711.04 6180.46l-10.84 6.26c-14.49 8.36-26.23 30.8-26.23 50.11 0 14.38 6.51 22.98 15.81 22.98 3.2 0 6.72-1.02 10.42-3.15l85.57-49.41-74.73-26.79m197.88 70.94l-19.24 11.11c-14.49 8.37-26.23 30.8-26.23 50.11 0 14.38 6.51 22.98 15.82 22.98 3.19 0 6.71-1.01 10.41-3.15l93.97-54.25-74.73-26.8m-30.85 366.43c-1.6 0-3.29.25-5.04.78l17.08 6.29c-2.81-4.57-7.01-7.07-12.04-7.07" class="E"/><path d="M10052.3 6517.23c-3.2 0-6.7 1.01-10.4 3.15l-76.99 44.45c-14.49 8.37-26.23 30.8-26.23 50.11 0 14.39 6.51 22.98 15.81 22.98 3.2 0 6.72-1.01 10.42-3.15l76.99-44.46c14.5-8.36 26.2-30.8 26.2-50.11 0-14.38-6.5-22.97-15.8-22.97" class="I"/><path d="M9080 6419.27v198.56l498.05 176.89c4.3-6.6 9.57-12.06 15.27-15.35l195.52-112.89-109.55-38.21-85.97 49.64c-3.7 2.14-7.22 3.15-10.41 3.15-9.31 0-15.82-8.6-15.82-22.98 0-19.31 11.75-41.75 26.23-50.11l10.45-6.03L9080 6419.27m784.36 273.55l-218.32 126.05 77.11 27.39 218.86-126.36-77.65-27.08m153.14 53.42l-219.35 126.65 103 36.59 235.95-121.53-119.6-41.71" fill="#bddcf4"/><path d="M9942.01 6719.9l-218.86 126.36 75 26.63 219.35-126.65-75.49-26.34" class="E"/><path d="M9603.77 6601.94l-10.45 6.03c-14.48 8.36-26.23 30.8-26.23 50.11 0 14.38 6.51 22.98 15.82 22.98 3.19 0 6.71-1.01 10.41-3.15l85.97-49.64-75.52-26.33" class="I"/><path d="M9788.84 6666.48l-195.52 112.89c-5.7 3.29-10.97 8.75-15.27 15.35l67.99 24.15 218.32-126.05-75.52-26.34" class="E"/><path d="M9855.39 5549.26c0-41.66-29.44-58.44-65.74-37.48-36.31 20.96-65.75 71.73-65.75 113.4 0 41.66 29.44 58.44 65.75 37.48 36.3-20.96 65.74-71.73 65.74-113.4" class="C"/><path d="M7583.79 5771.54c-17.04 0-38.85 6.44-66.79 22.99-126.62 75.01-114.17 239.69-114.17 239.69s.69.05 2.04.05c14.84 0 109.33-5.53 240.26-138.21l.07-1.65-.6-42.39s-.6-80.48-60.81-80.48" fill="#f6fcfe"/><g class="L"><path d="M7409.19 6027.7s96.79.16 235.3-133.36l-.75-38.05s-1.39-114.79-124.29-42.72c-122.9 72.08-110.26 214.13-110.26 214.13zm106.76-236.96c165.19-96.87 167.05 57.68 167.05 57.68l1.34-.72-2.36 52.74c-180.99 172.3-301.73 170.66-301.73 170.66s-29.48-183.49 135.7-280.36"/><path d="M7744.96 5815.66l-98.53 51.17-2.56 57.39 98.53-51.17 2.56-57.39m-358.77 211.18l-17.45 9.07c-9.52 4.94-17.69 18.98-18.24 31.36-.55 12.37 6.72 18.4 16.24 13.45l17.45-9.06c9.52-4.95 17.69-18.99 18.24-31.36h0c.55-12.38-6.72-18.4-16.24-13.46m637.24-330.97l-17.45 9.06c-9.53 4.95-17.69 18.99-18.24 31.37-.55 12.37 6.72 18.4 16.23 13.45l17.46-9.07c9.52-4.94 17.68-18.98 18.24-31.36.55-12.37-6.72-18.39-16.24-13.45"/></g><path d="M7929.03 5592.96c-11.28 0-24.73 3.1-40.74 10.24-122.11 54.45-134.86 190.2-134.86 190.2l-4.52 45.32c132.46-.23 234.23-109.65 234.23-109.65s20.57-136.12-54.11-136.11" fill="#f6fcfe"/><path d="M7889.11 5621.57c-122.15 55.21-134.08 176.92-134.08 176.92l-4.26 40.65c132.88-7.43 234.28-110.53 234.28-110.53s26.21-162.24-95.94-107.04zm122.29 121.71s-126.62 130.12-300.46 142.12l2.35-52.73 1.34-.68s16.06-163.85 180.23-238.05c164.17-74.19 116.54 149.34 116.54 149.34" class="L"/><path d="M7776.81 5768.27h0c-3.94 5.24-4.92 11.69-2.19 14.4l31.83 31.67c2.73 2.72 8.14.68 12.09-4.56h0c3.94-5.24 4.92-11.69 2.19-14.41l-31.83-31.66c-2.73-2.72-8.14-.68-12.09 4.56m-351.96 190.1h0c-3.94 5.24-4.93 11.69-2.19 14.4l31.83 31.67c2.73 2.72 8.14.68 12.08-4.56h0c3.95-5.24 4.93-11.69 2.2-14.4l-31.83-31.67c-2.73-2.72-8.14-.68-12.09 4.56" fill="#feffff"/><g class="G"><path d="M7188.23 5100.41l81.48 457.63 284.66-173.66-64.83-416.24c-5.13-67.36-314.42-22.53-301.31 132.27"/><path d="M7389.57 6189.99s-266.41 185.97-290.38-238.32c-16.67-295.14 154.16-560.44 396.55-688.42 150.94-79.69 344.58 2.5 360.49 149.06 47.68 212.53 58.36 412.97-5 589.23 19.18 176.73-109 120.09-324.43 142.64l-137.23 45.81"/></g><path d="M7230.72 5331.55c-19.73 22.12-40.54 43.3-66.27 58.03-89.93 51.49-262.26 192.33-225.26 503.22 53.66 450.97 450.34 362.48 700.33 401.15 101.82 15.75 174.9 15.72 275.03-83.18 91.07-89.95-7.96-276.61-145.38-281.96-54.5-2.13-37.13-149.54-50.64-199.12-24.03-88.17-81.78-128.92-106.74-214.31-23.61-80.79-151.73-194.49-229.59-207.88-92.25-15.87-133.26 3.6-151.48 24.05" fill="#422319"/><path d="M8015.9 5682.41l-385.39-17.19c-13.71-.61-25.42 10.11-26.03 23.81-.61 13.71 10.1 25.42 23.81 26.03l385.38 17.19c13.71.61 25.42-10.11 26.04-23.81.61-13.71-10.11-25.42-23.81-26.03" class="L"/><path d="M7685.85 5599.43c2.49-71.88-37.24-131.6-88.74-133.39-5.64-.19-11.18.31-16.58 1.46-44.01 9.37-78.96 61.45-81.18 125.48-2.49 71.89 37.24 131.61 88.75 133.39 51.5 1.78 95.26-55.05 97.75-126.94" class="G"/><path d="M7679.56 4921.01c-313.71 62.42-550.24-125.82-577.78 332.13 49.57 26.35 108.08 9.71 134.47-36.29 46.33-80.77 157.42-135.69 287.65-126.12 38.98 2.87 74.9-16.45 92.42-49.7l63.24-120.02" class="H"/><g class="B"><path d="M10239.1 3379.77l-594.39 343.17c-7.32 4.22-7.32 14.8 0 19.03l814.89 470.45c3.4 1.96 7.6 1.96 11 0l594.3-343.16c7.4-4.23 7.4-14.81 0-19.03l-814.8-470.46c-3.4-1.96-7.6-1.96-11 0"/><path d="M9660 3730h-20v30h20v-30"/></g><path d="M11080 3860h-30v20h30v-20" fill="#de2478"/><g class="B"><path d="M10239.1 3399.92l-594.39 343.17c-7.32 4.22-7.32 14.8 0 19.03l814.89 470.45c3.4 1.96 7.6 1.96 11 0l594.3-343.16c7.4-4.23 7.4-14.81 0-19.04l-814.8-470.45c-3.4-1.96-7.6-1.96-11 0"/><path d="M10833 3038.06l-594.4 343.16c-7.3 4.23-7.3 14.8 0 19.03l814.9 470.45c3.4 1.97 7.6 1.97 11 0l594.4-343.16c7.3-4.23 7.3-14.8 0-19.03l-814.9-470.45c-3.4-1.97-7.6-1.97-11 0"/><path d="M10260 3390h-20v20h20v-20"/></g><path d="M11670 3530h-30v10h30v-10" fill="#de2478"/><path d="M10833 3058.2l-594.4 343.17c-7.3 4.23-7.3 14.8 0 19.03l814.9 470.45c3.4 1.97 7.6 1.97 11 0l594.4-343.16c7.3-4.23 7.3-14.8 0-19.03L10844 3058.2c-3.4-1.96-7.6-1.96-11 0" class="B"/><path d="M9851.5 3686.43l387.2-249.83 235 187.03s-456.2 185.9-622.2 62.8" fill-opacity="0"/><g clip-path="url(#K)"><path d="M10242 3443.35c-27.3 103.05-187.6 156.29-390.5 243.08-45.7 19.55-93.56 40.79-142.56 64.7-8.53 4.92-7.45 13.6 2.4 19.29l81.88 47.27a16.01 16.01 0 0 1 .88-.71c237.6-151.25 472.2-226.4 447.9-373.63h0m0 0l758.2 442.38c.2 1.46.3 2.91.4 4.38.2-2.91.2-5.82.1-8.74l-758.7-438.02" fill="url(#L)"/></g><g clip-path="url(#M)"><path d="M10242 3443.35h0c24.3 147.23-210.3 222.38-447.9 373.63a16.01 16.01 0 0 0-.88.71c-6.53 5.7-4.66 14.46 4.48 19.91l662.9 395.49 36.3 21.66c4.8 2.85 10.7 4.27 16.3 4.27s11-1.41 14.7-4.23c262.7-104.91 436.8-220.47 467.9-325.46 3.9-13.25 5.5-26.35 4.8-39.22-.1-1.47-.2-2.92-.4-4.38l-758.2-442.38m-257.71 365.69c-2.35 0-4.78-.5-6.74-1.52-3.97-2.06-4.55-5.42-1.29-7.51l256.34-163.94c1.6-1.05 3.9-1.58 6.3-1.58s4.8.51 6.8 1.53c3.9 2.06 4.5 5.42 1.2 7.5l-256.26 163.94c-1.65 1.06-3.95 1.58-6.35 1.58m84.11 54.34c-2.4 0-4.8-.51-6.8-1.53-3.9-2.06-4.5-5.42-1.3-7.51l256.3-163.94c1.7-1.05 4-1.58 6.4-1.58 2.3 0 4.8.51 6.7 1.53 4 2.06 4.6 5.42 1.3 7.5l-256.3 163.95c-1.6 1.05-3.9 1.58-6.3 1.58m84.1 54.33c-2.4 0-4.8-.51-6.8-1.53-4-2.06-4.5-5.42-1.3-7.51l256.3-163.94c1.7-1.05 4-1.58 6.4-1.58 2.3 0 4.7.51 6.7 1.53 4 2.06 4.6 5.42 1.3 7.5l-256.3 163.95c-1.6 1.05-4 1.58-6.3 1.58m86 75.07c-2.3 0-4.8-.51-6.7-1.53-4-2.06-4.6-5.41-1.3-7.5l256.3-163.95c1.6-1.05 3.9-1.57 6.3-1.57s4.8.5 6.8 1.52c3.9 2.06 4.5 5.42 1.2 7.51l-256.2 163.94c-1.7 1.05-4 1.58-6.4 1.58m84.1 54.33c-2.4 0-4.8-.51-6.8-1.53-3.9-2.06-4.5-5.41-1.2-7.5l256.3-163.94c1.6-1.06 3.9-1.58 6.3-1.58s4.8.5 6.7 1.52c4 2.06 4.6 5.42 1.3 7.51l-256.3 163.94c-1.6 1.05-3.9 1.58-6.3 1.58m84.1 54.33c-2.4 0-4.8-.51-6.8-1.53-4-2.06-4.5-5.41-1.3-7.5l256.3-163.94c1.7-1.06 4-1.58 6.4-1.58 2.3 0 4.8.5 6.7 1.52 4 2.06 4.6 5.42 1.3 7.51l-256.3 163.94c-1.6 1.05-3.9 1.58-6.3 1.58m84 54.33c-2.3 0-4.7-.51-6.7-1.53-4-2.05-4.5-5.41-1.3-7.5l256.3-163.94c1.7-1.06 4-1.58 6.4-1.58 2.3 0 4.7.51 6.7 1.52 4 2.06 4.6 5.42 1.3 7.51l-256.3 163.94c-1.7 1.05-4 1.58-6.4 1.58m84.1 54.33c-2.3 0-4.8-.51-6.7-1.53-4-2.05-4.6-5.41-1.3-7.5l256.3-163.94c1.6-1.06 3.9-1.58 6.3-1.58s4.8.51 6.8 1.53c4 2.05 4.5 5.41 1.3 7.5l-256.3 163.94c-1.7 1.05-4 1.58-6.4 1.58" fill="url(#N)"/></g><g clip-path="url(#O)"><g clip-path="url(#P)"><path d="M10825 4035v1h-2v1h-2v1h-1v1h-2v1h-1v1h-2v1h-2v1h-1v1h-2v1h-1v1h-2v1h-1v1h-2v1h-2v1h-1v1h-2v1h-1v1h-2v1h-1v1h-2v1h-1v1h-2v1h-2v1h-1v1h-2v1h-1v1h-2v1h-1v1h-2v1h-2v1h-1v1h-2v1h-1v1h-2v1h-1v1h-2v1h-1v1h-2v1h-2v1h-1v1h-2v1h-1v1h-2v1h-1v1h-2v1h-2v1h-1v1h-2v1h-1v1h-2v1h-1v1h-2v1h-1v1h-2v1h-2v1h-1v1h-2v1h-1v1h-2v1h-1v1h-2v1h-2v1h-1v1h-2v1h-1v1h-2v1h-1v1h-2v1h-1v1h-2v1h-2v1h-1v1h-2v1h-1v1h-2v1h-1v1h-2v1h-2v1h-1v1h-2v1h-1v1h-2v1h-1v1h-2v1h-2v1h-1v1h-2v1h-1v1h-2v1h-1v1h-2v1h-1v1h-2v1h-2v1h-1v1h-2v1h-1v1h-2v1h-1v1h-2v1h-2v1h-1v1h-2v1h-1v1h-2v1h-1v1h-2v1h-1v1h-2v1h-2v1h-1v1h-2v1h-1v1h-2v1h-1v1h-2v1h-2v1h-1v1h-2v1h-1v1h-2v1h-1v1h-2v1h-1v1h-2v1h-2v1h-1v1h-2v1h-1v1h-2v1h-1v1h-2v1h-2v1h-1v1h-2v1h-1v1h-2v1h-1v1h-2v1h-1v1h-2v1h-2v1h-1v1h-2v1h-1v1h-2v1h-1v1h-2v1h-2v1h-1v1h-2v1h-1v1h-2v1h-1v1h-2v1h-2v1h-1v1h-2v1h-1v1h-2v1h-1v1h-2v1h-1v1h-2v1h-2v1h-1v2h-1v3h1v2h2v1h2v1h4v1h4v-1h4v-1h2v-1h1v-1h2v-1h1v-1h2v-1h1v-1h2v-1h1v-1h2v-1h2v-1h1v-1h2v-1h1v-1h2v-1h1v-1h2v-1h2v-1h1v-1h2v-1h1v-1h2v-1h1v-1h2v-1h1v-1h2v-1h2v-1h1v-1h2v-1h1v-1h2v-1h1v-1h2v-1h2v-1h1v-1h2v-1h1v-1h2v-1h1v-1h2v-1h1v-1h2v-1h2v-1h1v-1h2v-1h1v-1h2v-1h1v-1h2v-1h2v-1h1v-1h2v-1h1v-1h2v-1h1v-1h2v-1h1v-1h2v-1h2v-1h1v-1h2v-1h1v-1h2v-1h1v-1h2v-1h2v-1h1v-1h2v-1h1v-1h2v-1h1v-1h2v-1h2v-1h1v-1h2v-1h1v-1h2v-1h1v-1h2v-1h1v-1h2v-1h2v-1h1v-1h2v-1h1v-1h2v-1h1v-1h2v-1h2v-1h1v-1h2v-1h1v-1h2v-1h1v-1h2v-1h1v-1h2v-1h2v-1h1v-1h2v-1h1v-1h2v-1h1v-1h2v-1h2v-1h1v-1h2v-1h1v-1h2v-1h1v-1h2v-1h1v-1h2v-1h2v-1h1v-1h2v-1h1v-1h2v-1h1v-1h2v-1h2v-1h1v-1h2v-1h1v-1h2v-1h1v-1h2v-1h2v-1h1v-1h2v-1h1v-1h2v-1h1v-1h2v-1h1v-1h2v-1h2v-1h1v-1h2v-1h1v-1h2v-1h1v-1h2v-1h2v-1h1v-1h2v-1h1v-1h2v-1h1v-1h2v-1h1v-1h2v-1h2v-1h1v-1h2v-1h1v-1h2v-1h1v-1h2v-1h2v-1h1v-1h2v-1h1v-1h2v-1h1v-1h2v-1h1v-5h-1v-1h-1v-1h-1v-1h-3v-1" fill="url(#Q)"/></g></g><g clip-path="url(#R)"><path d="M10745.4 3981.22c-2.4 0-4.7.52-6.4 1.58l-256.3 163.94c-3.2 2.09-2.7 5.45 1.3 7.5 2 1.02 4.4 1.53 6.7 1.53 2.4 0 4.7-.53 6.4-1.58l256.3-163.94c3.3-2.09 2.7-5.45-1.3-7.51-2-1.01-4.4-1.52-6.7-1.52" fill="url(#Q)"/></g><g clip-path="url(#S)"><path d="M10661.3 3926.89c-2.4 0-4.7.52-6.4 1.58l-256.3 163.94c-3.2 2.09-2.7 5.44 1.3 7.5 2 1.02 4.4 1.53 6.8 1.53s4.7-.53 6.3-1.58l256.3-163.94c3.3-2.09 2.7-5.45-1.3-7.51-1.9-1.02-4.4-1.52-6.7-1.52" fill="url(#Q)"/></g><g clip-path="url(#T)"><path d="M10577.2 3872.56c-2.4 0-4.7.52-6.3 1.58l-256.3 163.94c-3.3 2.09-2.7 5.44 1.2 7.5 2 1.02 4.4 1.53 6.8 1.53s4.7-.53 6.3-1.58l256.3-163.94c3.3-2.09 2.7-5.45-1.3-7.51-1.9-1.02-4.3-1.52-6.7-1.52" fill="url(#Q)"/></g><g clip-path="url(#U)"><path d="M10493.1 3818.23c-2.4 0-4.7.52-6.3 1.57l-256.3 163.95c-3.3 2.09-2.7 5.44 1.3 7.5 1.9 1.02 4.4 1.53 6.7 1.53 2.4 0 4.7-.53 6.4-1.58l256.2-163.94c3.3-2.09 2.7-5.45-1.2-7.51-2-1.02-4.4-1.52-6.8-1.52" fill="url(#Q)"/></g><g clip-path="url(#V)"><path d="M10407.1 3743.15c-2.4 0-4.7.53-6.4 1.58l-256.3 163.94c-3.2 2.09-2.7 5.45 1.3 7.51 2 1.02 4.4 1.53 6.8 1.53 2.3 0 4.7-.53 6.3-1.58l256.3-163.95c3.3-2.08 2.7-5.44-1.3-7.5-2-1.02-4.4-1.53-6.7-1.53" fill="url(#Q)"/></g><g clip-path="url(#W)"><path d="M10323 3688.82c-2.4 0-4.7.53-6.4 1.58l-256.3 163.94c-3.2 2.09-2.6 5.45 1.3 7.51 2 1.02 4.4 1.53 6.8 1.53s4.7-.53 6.3-1.58l256.3-163.95c3.3-2.08 2.7-5.44-1.3-7.5-1.9-1.02-4.4-1.53-6.7-1.53" fill="url(#Q)"/></g><g clip-path="url(#X)"><path d="M10238.9 3634.49c-2.4 0-4.7.53-6.3 1.58l-256.34 163.94c-3.26 2.09-2.68 5.45 1.29 7.51 1.96 1.02 4.39 1.52 6.74 1.52 2.4 0 4.7-.52 6.35-1.58l256.26-163.94c3.3-2.08 2.7-5.44-1.2-7.5-2-1.02-4.4-1.53-6.8-1.53" fill="url(#Q)"/></g><path d="M10238.7 3436.6l315-153.27s-221.9 258.27-315 153.27" class="B"/><path d="M10242 3443.35s73.1 27.23 132.1-21.59 435.3-331.55 435.3-331.55l764.8 437.32s-408.7 396.46-573.5 353.84l-758.7-438.02" fill="#fff"/><path d="M11346.4 3631.22c-2.5 0-5 .58-6.7 1.72l-252.5 169.68c-3.2 2.16-2.6 5.51 1.4 7.48 1.9.92 4.2 1.38 6.5 1.38 2.5 0 4.9-.59 6.6-1.73l252.6-169.68c3.2-2.16 2.5-5.51-1.5-7.48-1.9-.92-4.2-1.37-6.4-1.37m-85.3-52.42c-2.5 0-5 .58-6.7 1.72l-252.5 169.68c-3.2 2.17-2.6 5.51 1.5 7.48 1.8.92 4.1 1.38 6.4 1.38 2.5 0 4.9-.59 6.6-1.73l252.6-169.68c3.2-2.16 2.5-5.51-1.5-7.48-1.9-.92-4.2-1.37-6.4-1.37m-85.3-52.43c-2.5 0-4.9.59-6.6 1.73l-252.6 169.69c-3.2 2.16-2.5 5.5 1.5 7.47 1.9.92 4.1 1.38 6.4 1.38 2.5 0 5-.59 6.7-1.73l252.5-169.68c3.2-2.16 2.6-5.51-1.5-7.48-1.8-.92-4.1-1.38-6.4-1.38m-85.2-52.42c-2.6 0-5 .59-6.7 1.73l-252.6 169.69c-3.2 2.16-2.5 5.5 1.5 7.47 1.9.92 4.2 1.38 6.4 1.38 2.5 0 5-.59 6.7-1.73l252.5-169.68c3.2-2.16 2.6-5.51-1.4-7.48-1.9-.92-4.2-1.38-6.4-1.38m-85.3-52.41c-2.6 0-5 .58-6.7 1.72l-252.5 169.69c-3.3 2.15-2.6 5.5 1.4 7.47 1.9.92 4.2 1.38 6.4 1.38 2.5 0 5-.59 6.7-1.73l252.5-169.69c3.2-2.15 2.6-5.5-1.4-7.47-1.9-.92-4.2-1.37-6.4-1.37m-87.8-73.12c-2.5 0-4.9.59-6.6 1.73l-252.6 169.68c-3.2 2.16-2.5 5.51 1.5 7.48 1.9.92 4.2 1.37 6.4 1.37 2.5 0 5-.58 6.7-1.72l252.5-169.68c3.2-2.17 2.6-5.51-1.5-7.48-1.8-.92-4.1-1.38-6.4-1.38m-85.2-52.42c-2.6 0-5 .58-6.7 1.73l-252.6 169.68c-3.2 2.16-2.5 5.51 1.5 7.47 1.9.93 4.2 1.38 6.4 1.38 2.5 0 5-.58 6.7-1.72l252.5-169.69c3.2-2.15 2.6-5.5-1.4-7.47-1.9-.92-4.2-1.38-6.4-1.38m-85.3-52.42c-2.6 0-5 .58-6.7 1.73l-252.5 169.68c-3.3 2.16-2.6 5.51 1.4 7.47 1.9.93 4.2 1.38 6.4 1.38 2.5 0 5-.58 6.7-1.72l252.5-169.69c3.2-2.15 2.6-5.5-1.4-7.47-1.9-.92-4.2-1.38-6.4-1.38" fill="#d5d2e5"/><path d="M11274.6 3772.36c-87.8-78.33-325.7-265.3-452-362.84-6-4.63-2.3-14.19 5.3-13.61l94.2 7.27c5.4.41 9.5-4.78 7.8-9.94l-21-65.48c-2.2-6.95 5.7-12.87 11.6-8.63 52.6 37.53 196.7 194.35 405 398.7 17.1 16.76 14.2 45.09-5.9 58.05a37.23 37.23 0 0 1-45-3.52" fill="#706bbc"/></g></svg>