<?xml version="1.0" standalone="no"?>
<!DOCTYPE svg PUBLIC "-//W3C//DTD SVG 20010904//EN"
 "http://www.w3.org/TR/2001/REC-SVG-20010904/DTD/svg10.dtd">
<svg version="1.0" xmlns="http://www.w3.org/2000/svg"
 width="1518.000000pt" height="1518.000000pt" viewBox="0 0 1518.000000 1518.000000"
 preserveAspectRatio="xMidYMid meet">
<metadata>
Created by potrace 1.14, written by Peter Selinger 2001-2017
</metadata>
<g transform="translate(0.000000,1518.000000) scale(0.100000,-0.100000)"
fill="#000000" stroke="none">
<path d="M7225 15168 c-3 -7 -88 -303 -189 -658 -257 -897 -258 -900 -272
-900 -6 0 -159 61 -340 136 -181 75 -435 181 -564 234 l-235 98 -2 -687 c-2
-377 0 -742 5 -810 l7 -125 354 -143 c195 -79 356 -145 359 -148 8 -7 -84
-335 -480 -1720 -209 -731 -383 -1338 -385 -1348 -3 -10 -11 -16 -17 -14 -83
33 -525 214 -596 245 -52 22 -239 99 -415 172 -288 119 -1570 653 -1688 703
-26 11 -51 17 -55 13 -4 -4 -8 -609 -10 -1345 l-3 -1337 933 -374 c1146 -459
1142 -457 1146 -493 3 -26 -82 -331 -503 -1797 -343 -1196 -475 -1652 -491
-1701 -14 -45 -17 -47 -112 -91 -53 -25 -290 -123 -527 -219 -236 -95 -433
-178 -437 -183 -9 -13 -10 -2585 -2 -2638 l6 -36 47 20 c25 11 147 62 271 113
124 51 340 141 480 200 140 59 372 155 515 214 254 106 762 318 1570 656 220
92 452 189 515 215 63 26 239 99 390 163 151 63 426 178 610 255 184 77 461
193 615 257 154 65 359 150 455 190 96 40 328 137 515 215 187 79 408 171 490
205 83 34 303 127 490 205 187 78 435 182 550 230 116 48 334 139 485 203 151
63 372 155 490 205 118 49 384 161 590 247 206 87 447 187 535 224 l160 66 3
1036 2 1036 -217 91 c-120 50 -382 159 -583 242 -201 84 -444 185 -540 225
-96 40 -323 135 -505 210 -181 75 -420 174 -530 220 -242 101 -2125 886 -2385
995 -338 140 -758 322 -775 334 -14 10 11 23 157 83 95 40 304 127 463 194
160 67 400 168 535 224 135 56 398 167 585 245 187 79 423 178 525 220 102 43
338 142 525 220 187 79 423 178 525 220 102 43 311 130 465 195 154 64 384
160 510 213 127 52 233 100 237 106 4 6 7 287 5 625 l-2 614 -415 174 c-228
95 -473 197 -545 227 -128 53 -534 222 -1080 451 -154 65 -370 155 -480 201
-110 45 -333 139 -495 207 l-295 124 2 36 c3 54 138 544 383 1392 192 665 205
716 190 725 -9 6 -325 10 -768 10 -593 0 -754 -3 -757 -12z m842 -3694 c261
-102 939 -374 1076 -431 38 -15 68 -32 68 -38 1 -9 -49 -30 -996 -412 -760
-307 -835 -336 -842 -330 -5 6 265 964 343 1215 34 109 36 114 59 108 14 -4
145 -54 292 -112z m-1267 -5584 c1088 -433 1920 -770 1920 -779 0 -3 -30 -18
-67 -33 -38 -15 -219 -88 -403 -163 -978 -398 -2714 -1095 -2717 -1091 -6 6
639 2275 652 2297 7 10 7 10 615 -231z"/>
<path d="M5310 12400 c-9 -5 -128 -56 -265 -113 -239 -100 -1247 -523 -1725
-724 -124 -52 -307 -129 -407 -170 l-183 -76 0 -286 1 -286 277 -114 c152 -63
387 -161 522 -217 288 -120 1348 -561 1435 -597 33 -13 131 -54 218 -91 87
-36 163 -66 168 -66 5 0 9 144 9 355 l0 355 -22 14 c-16 10 -1358 553 -1565
633 -40 16 -49 12 1216 527 183 75 337 136 342 136 24 0 29 71 29 391 0 316
-1 339 -17 339 -10 0 -25 -5 -33 -10z"/>
</g>
</svg>
